<svg version="1.1" xmlns="http://www.w3.org/2000/svg" viewBox="0 0 3252.9491436151247 1709.8736470803162" width="3252.9491436151247" height="1709.8736470803162">
  <!-- svg-source:excalidraw -->
  
  <defs>
    <style class="style-fonts">
      @font-face {
        font-family: "Virgil";
        src: url("https://excalidraw.com/Virgil.woff2");
      }
      @font-face {
        font-family: "Cascadia";
        src: url("https://excalidraw.com/Cascadia.woff2");
      }
      @font-face {
        font-family: "Assistant";
        src: url("https://excalidraw.com/Assistant-Regular.woff2");
      }
    </style>
    
  </defs>
  <rect x="0" y="0" width="3252.9491436151247" height="1709.8736470803162" fill="#ffffff"></rect><g stroke-linecap="round" transform="translate(659 926.8736470803162) rotate(0 212 139.5)"><path d="M32 0 C157.77 -0.08, 285.84 -0.41, 392 0 M32 0 C169.9 2.01, 308.79 2.6, 392 0 M392 0 C412.42 0.69, 423.51 9.93, 424 32 M392 0 C411.99 1.66, 425.29 12.71, 424 32 M424 32 C422.62 110.82, 424.15 192.82, 424 247 M424 32 C425.37 100.9, 425.62 171.53, 424 247 M424 247 C423.29 268.15, 414.75 277.36, 392 279 M424 247 C425.35 269.75, 413.09 278.01, 392 279 M392 279 C286.15 280.29, 179.37 278.56, 32 279 M392 279 C310.71 278.52, 229.99 277.97, 32 279 M32 279 C12.36 280.91, 0 266.51, 0 247 M32 279 C8.62 279.45, 1.01 267.5, 0 247 M0 247 C-0.2 179.61, -2.66 112.17, 0 32 M0 247 C1.82 162.75, 1.66 77.64, 0 32 M0 32 C-0.14 8.74, 11.52 0.62, 32 0 M0 32 C-1.2 8.63, 10.83 1.75, 32 0" stroke="#1e1e1e" stroke-width="2" fill="none"></path></g><g transform="translate(813 948.8736470803162) rotate(0 24.65997314453125 12.5)"><text x="0" y="17.52" font-family="Virgil, Segoe UI Emoji" font-size="20px" fill="#1e1e1e" text-anchor="start" style="white-space: pre;" direction="ltr" dominant-baseline="alphabetic">Point</text></g><g stroke-linecap="round"><g transform="translate(661 989.8736470803162) rotate(0 210 0.5)"><path d="M0.43 1.03 C70.12 1.29, 349.04 1.23, 419.1 1.29 M-0.81 0.52 C69.18 0.42, 351.13 -0.46, 421.34 -0.69" stroke="#1e1e1e" stroke-width="2" fill="none"></path></g></g><mask></mask><g transform="translate(681 1013.8736470803162) rotate(0 38.38996887207031 25)"><text x="0" y="17.52" font-family="Virgil, Segoe UI Emoji" font-size="20px" fill="#1e1e1e" text-anchor="start" style="white-space: pre;" direction="ltr" dominant-baseline="alphabetic">x: float</text><text x="0" y="42.519999999999996" font-family="Virgil, Segoe UI Emoji" font-size="20px" fill="#1e1e1e" text-anchor="start" style="white-space: pre;" direction="ltr" dominant-baseline="alphabetic">y: float</text></g><g stroke-linecap="round"><g transform="translate(663 1089.8736470803162) rotate(0 210 -0.5)"><path d="M-0.75 -0.4 C69.26 -0.48, 348.91 -0.46, 419.19 -0.57 M1.06 -1.65 C71.52 -2.09, 351.54 -2.77, 421.48 -2.47" stroke="#1e1e1e" stroke-width="2" fill="none"></path></g></g><mask></mask><g transform="translate(681 1119.8736470803162) rotate(0 191.13986206054688 25)"><text x="0" y="17.52" font-family="Virgil, Segoe UI Emoji" font-size="20px" fill="#1e1e1e" text-anchor="start" style="white-space: pre;" direction="ltr" dominant-baseline="alphabetic">distance(p: Point): float</text><text x="0" y="42.519999999999996" font-family="Virgil, Segoe UI Emoji" font-size="20px" fill="#1e1e1e" text-anchor="start" style="white-space: pre;" direction="ltr" dominant-baseline="alphabetic">translate(deltaX: float, deltaY: float)</text></g><g stroke-linecap="round"><g transform="translate(884 923.8736470803162) rotate(0 -1 -48.5)"><path d="M-1.19 -0.43 C-1.52 -16.59, -0.69 -81.88, -0.88 -97.97 M0.38 -1.7 C-0.1 -17.65, -0.63 -81.28, -1.24 -96.95" stroke="#1e1e1e" stroke-width="2" fill="none"></path></g></g><mask></mask><g stroke-linecap="round"><g transform="translate(865 823.8736470803162) rotate(0 18 0.5)"><path d="M0.39 -0.28 C6.33 -0.16, 30.01 0.65, 35.93 0.82 M-0.08 0.76 C5.77 0.95, 29.53 1.35, 35.46 1.43" stroke="#1e1e1e" stroke-width="2" fill="none"></path></g></g><mask></mask><g stroke-linecap="round"><g transform="translate(865 824.8736470803162) rotate(0 8.5 -16.5)"><path d="M-0.64 0.35 C2.11 -4.79, 14.65 -26.48, 17.7 -31.95 M1.22 -0.51 C3.77 -5.86, 14.45 -27.85, 17.11 -33.52" stroke="#1e1e1e" stroke-width="2" fill="none"></path></g></g><mask></mask><g stroke-linecap="round"><g transform="translate(899 824.8736470803162) rotate(0 -9.5 -17)"><path d="M-0.87 -0.58 C-4.25 -6.08, -16.64 -27.37, -19.83 -32.88 M0.88 1.72 C-2.17 -4.09, -14.46 -28.77, -17.55 -34.42" stroke="#1e1e1e" stroke-width="2" fill="none"></path></g></g><mask></mask><g transform="translate(311 1193.8736470803162) rotate(0 45.38995361328125 12.5)"><text x="0" y="17.52" font-family="Virgil, Segoe UI Emoji" font-size="20px" fill="#1e1e1e" text-anchor="start" style="white-space: pre;" direction="ltr" dominant-baseline="alphabetic">unit test</text></g><g stroke-linecap="round"><g transform="translate(475 1192.8736470803162) rotate(0 91.5 -29)"><path d="M-0.49 -0.96 C29.91 -10.83, 152.57 -49.26, 183.13 -58.84 M1.46 1.15 C31.64 -8.62, 152.16 -47.99, 182.26 -57.74" stroke="#f08c00" stroke-width="1" fill="none"></path></g><g transform="translate(475 1192.8736470803162) rotate(0 91.5 -29)"><path d="M162.56 -42.34 C168.09 -47.64, 175.47 -53.67, 182.26 -57.74 M162.56 -42.34 C167.07 -46.85, 172.72 -49.97, 182.26 -57.74" stroke="#f08c00" stroke-width="1" fill="none"></path></g><g transform="translate(475 1192.8736470803162) rotate(0 91.5 -29)"><path d="M157.27 -58.6 C164.77 -57.96, 174.08 -58.07, 182.26 -57.74 M157.27 -58.6 C163.15 -58.84, 170.2 -57.65, 182.26 -57.74" stroke="#f08c00" stroke-width="1" fill="none"></path></g></g><mask></mask><g stroke-linecap="round"><g transform="translate(487 1199.8736470803162) rotate(0 90.5 -18.5)"><path d="M-0.02 -0.24 C30.1 -6.22, 150.7 -30.57, 180.72 -36.53 M-1.49 -1.41 C28.45 -7.71, 148.96 -32.34, 179.62 -38.41" stroke="#f08c00" stroke-width="1" fill="none"></path></g><g transform="translate(487 1199.8736470803162) rotate(0 90.5 -18.5)"><path d="M158.28 -25.38 C164.35 -29.76, 171.93 -34.75, 179.62 -38.41 M158.28 -25.38 C166.7 -29.91, 173.92 -36.48, 179.62 -38.41" stroke="#f08c00" stroke-width="1" fill="none"></path></g><g transform="translate(487 1199.8736470803162) rotate(0 90.5 -18.5)"><path d="M154.9 -42.14 C161.9 -41.49, 170.49 -41.45, 179.62 -38.41 M154.9 -42.14 C164.52 -40.31, 173.04 -40.47, 179.62 -38.41" stroke="#f08c00" stroke-width="1" fill="none"></path></g></g><mask></mask><g stroke-linecap="round" transform="translate(179 1181.8736470803162) rotate(0 159 169)"><path d="M32 0 C111.76 1.5, 195.3 2.6, 286 0 M32 0 C99.76 1.6, 166.67 0.57, 286 0 M286 0 C308.45 1.09, 316.71 11.87, 318 32 M286 0 C308.22 2.26, 320.02 11.32, 318 32 M318 32 C316.9 129.38, 317.32 224.33, 318 306 M318 32 C318.52 94.79, 318.77 157.69, 318 306 M318 306 C319.09 326.18, 308.77 336.78, 286 338 M318 306 C319.86 325.76, 307.58 337.03, 286 338 M286 338 C204.48 339.92, 123.75 339.88, 32 338 M286 338 C220.12 335.87, 153.46 336.07, 32 338 M32 338 C9.8 338.23, 0.87 326.48, 0 306 M32 338 C9.15 336.78, -0.96 325.07, 0 306 M0 306 C-0.71 207.62, -0.51 113.26, 0 32 M0 306 C-1.59 233.74, -0.19 160.79, 0 32 M0 32 C-0.04 9.89, 11.18 -0.33, 32 0 M0 32 C1.03 9.53, 10.18 -0.61, 32 0" stroke="#f08c00" stroke-width="1" fill="none"></path></g><g transform="translate(188 1244.8736470803162) rotate(0 131.96990966796875 25)"><text x="0" y="17.52" font-family="Virgil, Segoe UI Emoji" font-size="20px" fill="#1e1e1e" text-anchor="start" style="white-space: pre;" direction="ltr" dominant-baseline="alphabetic">- unnitest (python)</text><text x="0" y="42.519999999999996" font-family="Virgil, Segoe UI Emoji" font-size="20px" fill="#1e1e1e" text-anchor="start" style="white-space: pre;" direction="ltr" dominant-baseline="alphabetic">- pytest (pytest.org)</text></g><g stroke-linecap="round" transform="translate(10 1549.8736470803162) rotate(0 294.5 75)"><path d="M32 0 C192.26 2.29, 354.47 1.84, 557 0 M32 0 C201.5 0.84, 370.72 0.63, 557 0 M557 0 C579.51 0.4, 590.91 10.43, 589 32 M557 0 C579.19 0.03, 589.76 12.73, 589 32 M589 32 C589.02 59.05, 588.9 89.51, 589 118 M589 32 C589.05 66.56, 589.04 99.05, 589 118 M589 118 C588.71 138.23, 580.11 148.72, 557 150 M589 118 C587.83 137.42, 579.28 151.78, 557 150 M557 150 C387.33 152.03, 219.4 151.86, 32 150 M557 150 C429.58 151.23, 302.52 151.65, 32 150 M32 150 C11.4 148.09, -0.17 140.23, 0 118 M32 150 C8.49 149.97, -0.63 139.81, 0 118 M0 118 C1.28 95.56, -2.25 75.17, 0 32 M0 118 C1.03 85.27, -0.26 53.11, 0 32 M0 32 C1.49 8.9, 10.14 0.59, 32 0 M0 32 C-1.93 11.37, 10.85 -1.35, 32 0" stroke="#f08c00" stroke-width="1" fill="none"></path></g><g transform="translate(46 1575.8736470803162) rotate(0 260.749755859375 50)"><text x="0" y="17.52" font-family="Virgil, Segoe UI Emoji" font-size="20px" fill="#1e1e1e" text-anchor="start" style="white-space: pre;" direction="ltr" dominant-baseline="alphabetic">type checking</text><text x="0" y="42.519999999999996" font-family="Virgil, Segoe UI Emoji" font-size="20px" fill="#1e1e1e" text-anchor="start" style="white-space: pre;" direction="ltr" dominant-baseline="alphabetic">- hints</text><text x="0" y="67.52" font-family="Virgil, Segoe UI Emoji" font-size="20px" fill="#1e1e1e" text-anchor="start" style="white-space: pre;" direction="ltr" dominant-baseline="alphabetic">- mypy (checker)</text><text x="0" y="92.52" font-family="Virgil, Segoe UI Emoji" font-size="20px" fill="#1e1e1e" text-anchor="start" style="white-space: pre;" direction="ltr" dominant-baseline="alphabetic">- article https://realpython.com/python-type-checking/</text></g><g stroke-linecap="round" transform="translate(1083.169516851865 29.852394105352573) rotate(0 209.1910514530884 88.00260997328826)"><path d="M32 0 C145.84 -0.69, 260.67 -0.34, 386.38 0 M32 0 C160.16 0.26, 289.03 0.71, 386.38 0 M386.38 0 C408.5 -0.68, 418.25 10.2, 418.38 32 M386.38 0 C409.12 2.16, 416.62 9.06, 418.38 32 M418.38 32 C419.24 76.13, 421.05 118.26, 418.38 144.01 M418.38 32 C418.18 75.66, 418.32 120.52, 418.38 144.01 M418.38 144.01 C416.73 166.38, 406.09 177.64, 386.38 176.01 M418.38 144.01 C417.5 166.46, 408 174.82, 386.38 176.01 M386.38 176.01 C286.9 177.57, 185.81 177.33, 32 176.01 M386.38 176.01 C250.94 178.33, 116.15 177.81, 32 176.01 M32 176.01 C11.01 177.74, 1.72 165.09, 0 144.01 M32 176.01 C10.18 176.62, 1.19 164.74, 0 144.01 M0 144.01 C2.37 118.95, 1.15 93.27, 0 32 M0 144.01 C1.32 119.22, 0.67 96.81, 0 32 M0 32 C0.3 8.91, 10.65 1.04, 32 0 M0 32 C0.26 11.38, 8.43 -0.28, 32 0" stroke="#1e1e1e" stroke-width="2" fill="none"></path></g><g transform="translate(1237.169516851865 51.85239410535257) rotate(0 30.039970397949276 12.5)"><text x="0" y="17.52" font-family="Virgil, Segoe UI Emoji" font-size="20px" fill="#1e1e1e" text-anchor="start" style="white-space: pre;" direction="ltr" dominant-baseline="alphabetic">object</text></g><g stroke-linecap="round"><g transform="translate(1085.169516851865 92.85239410535257) rotate(0 210.00000000000006 0.5)"><path d="M1.14 0.75 C70.91 1.09, 349.76 0.83, 419.44 0.88 M0.28 0.1 C69.77 0.73, 347.96 1.97, 418.2 2.36" stroke="#1e1e1e" stroke-width="2" fill="none"></path></g></g><mask></mask><g stroke-linecap="round"><g transform="translate(1087.169516851865 151.6544820839831) rotate(0 210.00000000000006 -0.5)"><path d="M-0.74 0.07 C69.32 0.07, 349.64 0.16, 419.84 -0.08 M1.07 -0.94 C71.01 -1.25, 348.99 -1.83, 418.8 -1.73" stroke="#1e1e1e" stroke-width="2" fill="none"></path></g></g><mask></mask><g stroke-linecap="round" transform="translate(686.6819525287335 604.2067566569432) rotate(0 209.19105145308845 88.00260997328826)"><path d="M32 0 C112.54 -1.13, 194.28 -1.24, 386.38 0 M32 0 C169.34 -0.69, 307.48 -0.18, 386.38 0 M386.38 0 C407.88 -1.72, 418.76 9.72, 418.38 32 M386.38 0 C406.09 1.37, 419.44 8.49, 418.38 32 M418.38 32 C420.68 74.29, 418.66 119.61, 418.38 144.01 M418.38 32 C417.39 70.23, 418.32 108.33, 418.38 144.01 M418.38 144.01 C418.13 166.49, 407.86 174.29, 386.38 176.01 M418.38 144.01 C416.22 166.43, 409.29 176.4, 386.38 176.01 M386.38 176.01 C278.09 174.19, 170.56 173.35, 32 176.01 M386.38 176.01 C305.5 174.55, 225.6 175.29, 32 176.01 M32 176.01 C8.83 177.07, -0.65 164.95, 0 144.01 M32 176.01 C12.26 174.45, -0.43 164.17, 0 144.01 M0 144.01 C-0.26 121.24, 1.63 94.57, 0 32 M0 144.01 C1.9 119.15, 1.73 95.65, 0 32 M0 32 C-0.79 11.37, 9.83 1.18, 32 0 M0 32 C-1.96 8.88, 12.7 -1.31, 32 0" stroke="#1e1e1e" stroke-width="2" fill="none"></path></g><g transform="translate(840.6819525287335 626.2067566569432) rotate(0 28.08997344970703 12.5)"><text x="0" y="17.52" font-family="Virgil, Segoe UI Emoji" font-size="20px" fill="#1e1e1e" text-anchor="start" style="white-space: pre;" direction="ltr" dominant-baseline="alphabetic">Shape</text></g><g stroke-linecap="round"><g transform="translate(688.6819525287335 667.2067566569432) rotate(0 210 0.5)"><path d="M-0.79 1.06 C69.19 1.28, 349.17 1.29, 419.21 1.15 M0.99 0.57 C71.42 1.03, 351.94 2.67, 421.51 2.77" stroke="#1e1e1e" stroke-width="2" fill="none"></path></g></g><mask></mask><g stroke-linecap="round"><g transform="translate(690.6819525287335 726.0088446355737) rotate(0 210 -0.5)"><path d="M-0.79 0.15 C69.26 -0.31, 349.27 -1.58, 419.49 -1.74 M1 -0.81 C70.92 -0.62, 348.44 -0.83, 418.27 -0.59" stroke="#1e1e1e" stroke-width="2" fill="none"></path></g></g><mask></mask><g stroke-linecap="round" transform="translate(1312.1411623077056 600.4614919277278) rotate(0 209.19105145308845 88.00260997328826)"><path d="M32 0 C138.05 -1.01, 244.84 0.07, 386.38 0 M32 0 C131.37 -1.08, 229.96 -0.38, 386.38 0 M386.38 0 C407.8 -1.35, 417.83 12.5, 418.38 32 M386.38 0 C408.03 -0.97, 418.47 12.06, 418.38 32 M418.38 32 C417.82 61.26, 417.45 93.96, 418.38 144.01 M418.38 32 C418.5 70.37, 418.48 109.16, 418.38 144.01 M418.38 144.01 C418.35 164.09, 407.54 177.44, 386.38 176.01 M418.38 144.01 C417.27 167.43, 406.11 176.77, 386.38 176.01 M386.38 176.01 C312.93 174.2, 237.24 173.9, 32 176.01 M386.38 176.01 C285.41 178.17, 185.16 178.48, 32 176.01 M32 176.01 C11.19 176.11, 0.86 166.38, 0 144.01 M32 176.01 C11.16 178.07, -0.43 164.7, 0 144.01 M0 144.01 C-2.35 102.56, -0.26 65.11, 0 32 M0 144.01 C-0.71 115.54, -1.61 87.8, 0 32 M0 32 C-0.91 11.04, 9.71 -0.67, 32 0 M0 32 C-1.45 8.56, 12.8 0.44, 32 0" stroke="#1e1e1e" stroke-width="2" fill="none"></path></g><g transform="translate(1466.1411623077056 622.4614919277278) rotate(0 40.71996307373047 12.5)"><text x="0" y="17.52" font-family="Virgil, Segoe UI Emoji" font-size="20px" fill="#1e1e1e" text-anchor="start" style="white-space: pre;" direction="ltr" dominant-baseline="alphabetic">Iterable</text></g><g stroke-linecap="round"><g transform="translate(1314.1411623077056 663.4614919277278) rotate(0 210 0.5)"><path d="M0.19 -0.25 C70.41 -0.05, 350.37 1.34, 420.5 1.53 M-1.17 -1.43 C69.01 -1.62, 349.5 -0.91, 419.81 -0.32" stroke="#1e1e1e" stroke-width="2" fill="none"></path></g></g><mask></mask><g stroke-linecap="round"><g transform="translate(1316.1411623077056 722.2635799063584) rotate(0 210 -0.5)"><path d="M0.5 0.53 C70.63 0.38, 350.98 -1.09, 420.98 -1.15 M-0.7 -0.24 C69.34 -0.18, 350.43 0.53, 420.54 0.31" stroke="#1e1e1e" stroke-width="2" fill="none"></path></g></g><mask></mask><g stroke-linecap="round" transform="translate(1087.4252785547815 304.5855783197111) rotate(0 209.1910514530884 88.00260997328826)"><path d="M32 0 C162.9 0.46, 293.63 -0.29, 386.38 0 M32 0 C126.08 1.92, 219.06 2.4, 386.38 0 M386.38 0 C407.34 0.24, 417.22 11.42, 418.38 32 M386.38 0 C407.01 -0.27, 417.8 10.39, 418.38 32 M418.38 32 C416.84 73.78, 419.1 113.52, 418.38 144.01 M418.38 32 C418.87 73.91, 418.76 117.44, 418.38 144.01 M418.38 144.01 C420.33 163.94, 407.64 177.26, 386.38 176.01 M418.38 144.01 C416.48 164.89, 406.81 173.8, 386.38 176.01 M386.38 176.01 C280.05 176.81, 175.66 175.49, 32 176.01 M386.38 176.01 C302.95 177.24, 219.2 177, 32 176.01 M32 176.01 C10.03 175.95, -0.53 165.05, 0 144.01 M32 176.01 C10.57 176.22, -1.92 167.44, 0 144.01 M0 144.01 C0.21 114.37, 0.02 82.7, 0 32 M0 144.01 C-0.06 99.55, 1.46 56.88, 0 32 M0 32 C1.99 11.66, 11.72 -0.39, 32 0 M0 32 C-0.33 9.66, 9.63 -2.1, 32 0" stroke="#1e1e1e" stroke-width="2" fill="none"></path></g><g transform="translate(1271.3873963885048 319.09504886128036) rotate(0 20.269989013671875 12.5)"><text x="0" y="17.52" font-family="Virgil, Segoe UI Emoji" font-size="20px" fill="#1e1e1e" text-anchor="start" style="white-space: pre;" direction="ltr" dominant-baseline="alphabetic">ABC</text></g><g stroke-linecap="round"><g transform="translate(1089.4252785547815 367.5855783197111) rotate(0 209.99999999999994 0.5)"><path d="M-0.67 -0.44 C69.32 -0.42, 349.71 -0.22, 420.02 0.06 M1.17 -1.71 C71.01 -1.58, 349.11 0.37, 419.08 1.1" stroke="#1e1e1e" stroke-width="2" fill="none"></path></g></g><mask></mask><g stroke-linecap="round"><g transform="translate(1091.4252785547815 426.3876662983416) rotate(0 209.99999999999994 -0.5)"><path d="M0.02 -0.94 C70.32 -0.99, 351.12 -0.92, 421.16 -0.74 M-1.43 1.18 C68.87 0.78, 350.64 -2.26, 420.82 -2.73" stroke="#1e1e1e" stroke-width="2" fill="none"></path></g></g><mask></mask><g stroke-linecap="round"><g transform="translate(1107.3876162528065 615.9169426352153) rotate(0 -1 -48.5)"><path d="M-0.11 -0.83 C-0.41 -17.04, -2.13 -80.94, -2.56 -97.05 M-1.63 1.36 C-2.07 -14.68, -3.44 -79.25, -3.8 -95.54" stroke="#1e1e1e" stroke-width="2" fill="none"></path></g></g><mask></mask><g stroke-linecap="round"><g transform="translate(1088.3876162528065 515.9169426352153) rotate(0 18 0.5)"><path d="M-0.26 -0.02 C5.7 0.17, 29.73 0.58, 35.7 0.79 M0.61 -0.51 C6.76 -0.21, 30.78 1.25, 36.78 1.38" stroke="#1e1e1e" stroke-width="2" fill="none"></path></g></g><mask></mask><g stroke-linecap="round"><g transform="translate(1088.3876162528065 516.9169426352153) rotate(0 8.5 -16.5)"><path d="M-0.65 -0.46 C2.11 -5.87, 13.05 -27.19, 16.02 -32.52 M1.2 -1.74 C4.38 -7.51, 15.67 -28.94, 18.21 -34.39" stroke="#1e1e1e" stroke-width="2" fill="none"></path></g></g><mask></mask><g stroke-linecap="round"><g transform="translate(1122.3876162528065 516.9169426352153) rotate(0 -9.5 -17)"><path d="M-0.98 0.48 C-4.02 -5.01, -15.68 -27.58, -18.86 -33.4 M0.7 -0.31 C-2.42 -6.11, -16.67 -29.7, -19.74 -35.21" stroke="#1e1e1e" stroke-width="2" fill="none"></path></g></g><mask></mask><g stroke-linecap="round"><g transform="translate(1314.5399981722912 618.6189302254693) rotate(0 -1 -48.5)"><path d="M0.33 -0.44 C-0.2 -16.6, -1.81 -81.69, -2.05 -97.87 M-0.95 -1.72 C-1.75 -17.66, -2.94 -81, -3.02 -96.78" stroke="#1e1e1e" stroke-width="2" fill="none"></path></g></g><mask></mask><g stroke-linecap="round"><g transform="translate(1295.5399981722912 518.6189302254693) rotate(0 18 0.5)"><path d="M-0.02 -0.4 C6.02 -0.23, 30.39 0.48, 36.41 0.77 M-0.7 0.59 C5.3 0.84, 30.11 1.37, 36.19 1.35" stroke="#1e1e1e" stroke-width="2" fill="none"></path></g></g><mask></mask><g stroke-linecap="round"><g transform="translate(1295.5399981722912 519.6189302254693) rotate(0 8.5 -16.5)"><path d="M0.89 -0.5 C3.76 -5.73, 14.5 -26.97, 17.19 -32.2 M-0.1 -1.81 C2.63 -7.3, 13.61 -28.6, 16.35 -33.9" stroke="#1e1e1e" stroke-width="2" fill="none"></path></g></g><mask></mask><g stroke-linecap="round"><g transform="translate(1329.5399981722912 519.6189302254693) rotate(0 -9.5 -17)"><path d="M0.19 0.8 C-3.12 -4.6, -15.74 -27.21, -18.97 -32.89 M-1.17 0.17 C-4.71 -5.49, -16.75 -28.52, -19.9 -34.43" stroke="#1e1e1e" stroke-width="2" fill="none"></path></g></g><mask></mask><g stroke-linecap="round"><g transform="translate(1285.71879720958 305.1883697559878) rotate(0 0.35099379512712403 -32.7384057235175)"><path d="M-0.57 -0.67 C-0.74 -11.58, -0.55 -55.71, -0.18 -66.41 M1.34 1.6 C1.46 -9.1, 2.06 -53.94, 2.06 -65.37" stroke="#1e1e1e" stroke-width="2" fill="none"></path></g></g><mask></mask><g stroke-linecap="round"><g transform="translate(1269.4207847998343 236.71155830895282) rotate(0 18 0.5)"><path d="M-0.41 -0.43 C5.71 -0.17, 30.41 0.96, 36.44 1.25 M0.39 0.54 C6.49 0.66, 30.42 0.44, 36.23 0.42" stroke="#1e1e1e" stroke-width="2" fill="none"></path></g></g><mask></mask><g stroke-linecap="round"><g transform="translate(1269.4207847998343 237.71155830895282) rotate(0 8.5 -16.5)"><path d="M0.95 0.56 C3.84 -4.67, 13.56 -26.69, 16.41 -32.31 M0 -0.2 C3.36 -5.69, 15.84 -28.78, 18.81 -34.07" stroke="#1e1e1e" stroke-width="2" fill="none"></path></g></g><mask></mask><g stroke-linecap="round"><g transform="translate(1303.4207847998343 237.71155830895282) rotate(0 -9.5 -17)"><path d="M-0.59 0.69 C-3.74 -5.1, -14.88 -28.59, -17.96 -34.19 M1.3 0 C-2 -5.65, -14.84 -26.97, -18.36 -32.75" stroke="#1e1e1e" stroke-width="2" fill="none"></path></g></g><mask></mask><g stroke-linecap="round"><g transform="translate(1068.0380135523374 930.9293397765898) rotate(0 167.08693054897924 -57.26975289820757)"><path d="M-0.75 -0.73 C55.02 -19.87, 277.61 -96.07, 333.51 -114.91 M1.05 1.51 C57.32 -17.46, 280.36 -94.04, 335.88 -113.56" stroke="#1e1e1e" stroke-width="2" fill="none"></path></g></g><mask></mask><g stroke-linecap="round"><g transform="translate(1385.2118746502958 813.3898339801747) rotate(0 18 0.5)"><path d="M-0.3 -0.17 C5.79 0.12, 30.25 1.09, 36.23 1.37 M0.54 -0.73 C6.62 -0.57, 29.9 0.36, 35.91 0.6" stroke="#1e1e1e" stroke-width="2" fill="none"></path></g></g><mask></mask><g stroke-linecap="round"><g transform="translate(1385.2118746502958 814.3898339801747) rotate(0 8.5 -16.5)"><path d="M0.5 0.81 C3.27 -4.45, 13.28 -26.13, 15.98 -31.91 M-0.7 0.19 C2.49 -5.34, 15.41 -27.93, 18.16 -33.47" stroke="#1e1e1e" stroke-width="2" fill="none"></path></g></g><mask></mask><g stroke-linecap="round"><g transform="translate(1419.2118746502958 814.3898339801747) rotate(0 -9.5 -17)"><path d="M-1.02 1.09 C-4.32 -4.86, -16.49 -29.14, -19.29 -34.87 M0.65 0.61 C-2.88 -5.28, -17.29 -27.8, -20.39 -33.79" stroke="#1e1e1e" stroke-width="2" fill="none"></path></g></g><mask></mask><g transform="translate(752.431734319782 694.456912985309) rotate(0 69.73993682861331 12.5)"><text x="0" y="17.52" font-family="Virgil, Segoe UI Emoji" font-size="20px" fill="#1e1e1e" text-anchor="start" style="white-space: pre;" direction="ltr" dominant-baseline="alphabetic">name: str|None</text></g><g stroke-linecap="round" transform="translate(656.6227139866978 1322.3102915784739) rotate(0 211.99999999999997 139.5)"><path d="M32 0 C172.99 -1.77, 315.57 -2.23, 392 0 M32 0 C127.44 0.5, 223.46 -0.35, 392 0 M392 0 C413.67 0.99, 425.5 9.42, 424 32 M392 0 C411.41 1.24, 422.07 10.4, 424 32 M424 32 C422.91 114.92, 424.58 196.74, 424 247 M424 32 C425.49 95.64, 425.85 157.9, 424 247 M424 247 C423.8 268.81, 414.19 277.84, 392 279 M424 247 C423.55 269.19, 411.75 277.01, 392 279 M392 279 C293.3 280.49, 194.85 281.13, 32 279 M392 279 C315.42 278.52, 238.86 278.4, 32 279 M32 279 C11.95 277.13, 0.31 266.78, 0 247 M32 279 C9.81 278.47, 2.14 270.2, 0 247 M0 247 C-2.09 169.61, -0.3 89.39, 0 32 M0 247 C-0.65 191.29, -0.58 134.58, 0 32 M0 32 C0.38 10.76, 9.02 1.61, 32 0 M0 32 C-2.27 8.4, 8.88 1.8, 32 0" stroke="#1e1e1e" stroke-width="2" fill="none"></path></g><g transform="translate(810.6227139866978 1344.3102915784739) rotate(0 66.53993225097656 12.5)"><text x="0" y="17.52" font-family="Virgil, Segoe UI Emoji" font-size="20px" fill="#1e1e1e" text-anchor="start" style="white-space: pre;" direction="ltr" dominant-baseline="alphabetic">WeightedPoint</text></g><g stroke-linecap="round"><g transform="translate(658.6227139866978 1385.3102915784739) rotate(0 209.99999999999997 0.5)"><path d="M-1.11 -0.41 C69 -0.15, 349.86 0.57, 420 0.92 M0.51 -1.68 C70.52 -1.16, 349.33 2.19, 419.05 2.41" stroke="#1e1e1e" stroke-width="2" fill="none"></path></g></g><mask></mask><g transform="translate(678.6227139866978 1409.3102915784739) rotate(0 62.11994171142575 25)"><text x="0" y="17.52" font-family="Virgil, Segoe UI Emoji" font-size="20px" fill="#1e1e1e" text-anchor="start" style="white-space: pre;" direction="ltr" dominant-baseline="alphabetic">weight: float</text><text x="0" y="42.519999999999996" font-family="Virgil, Segoe UI Emoji" font-size="20px" fill="#1e1e1e" text-anchor="start" style="white-space: pre;" direction="ltr" dominant-baseline="alphabetic"></text></g><g stroke-linecap="round"><g transform="translate(660.6227139866978 1485.3102915784739) rotate(0 209.99999999999997 -0.5)"><path d="M-0.29 0.65 C69.8 0.34, 350.44 -1.79, 420.52 -1.97 M1.77 -0.06 C71.74 -0.24, 350.22 -0.54, 419.85 -0.94" stroke="#1e1e1e" stroke-width="2" fill="none"></path></g></g><mask></mask><g stroke-linecap="round"><g transform="translate(888.2580791390815 1322.6449692298615) rotate(0 -1 -48.5)"><path d="M0.61 0.2 C0.31 -15.86, -2.21 -80.42, -2.71 -96.59 M-0.53 -0.74 C-0.36 -17.15, 0.1 -82.72, -0.37 -98.5" stroke="#1e1e1e" stroke-width="2" fill="none"></path></g></g><mask></mask><g stroke-linecap="round"><g transform="translate(869.2580791390815 1222.6449692298615) rotate(0 18 0.5)"><path d="M-0.33 0.19 C5.6 0.35, 29.8 1, 35.82 1.08 M0.51 -0.19 C6.32 0.07, 29.5 1.6, 35.29 1.82" stroke="#1e1e1e" stroke-width="2" fill="none"></path></g></g><mask></mask><g stroke-linecap="round"><g transform="translate(869.2580791390815 1223.6449692298615) rotate(0 8.5 -16.5)"><path d="M-0.4 0.17 C2.45 -5.51, 13.69 -28.09, 16.43 -33.7 M1.59 -0.78 C4.3 -6.36, 12.38 -27.25, 15.18 -32.54" stroke="#1e1e1e" stroke-width="2" fill="none"></path></g></g><mask></mask><g stroke-linecap="round"><g transform="translate(903.2580791390815 1223.6449692298615) rotate(0 -9.5 -17)"><path d="M-0.57 -0.7 C-3.84 -6.49, -16.96 -28.8, -19.99 -34.53 M1.32 1.54 C-1.54 -4.1, -14.35 -27.3, -17.8 -33.26" stroke="#1e1e1e" stroke-width="2" fill="none"></path></g></g><mask></mask><g transform="translate(2050.8084126438016 10) rotate(0 149.29986572265625 50)"><text x="0" y="17.52" font-family="Virgil, Segoe UI Emoji" font-size="20px" fill="#1e1e1e" text-anchor="start" style="white-space: pre;" direction="ltr" dominant-baseline="alphabetic">Parallel/concurrent programing:</text><text x="0" y="42.519999999999996" font-family="Virgil, Segoe UI Emoji" font-size="20px" fill="#1e1e1e" text-anchor="start" style="white-space: pre;" direction="ltr" dominant-baseline="alphabetic">- multi processing</text><text x="0" y="67.52" font-family="Virgil, Segoe UI Emoji" font-size="20px" fill="#1e1e1e" text-anchor="start" style="white-space: pre;" direction="ltr" dominant-baseline="alphabetic">- multi threading</text><text x="0" y="92.52" font-family="Virgil, Segoe UI Emoji" font-size="20px" fill="#1e1e1e" text-anchor="start" style="white-space: pre;" direction="ltr" dominant-baseline="alphabetic">- async</text></g><g stroke-linecap="round" transform="translate(2324.6753834113524 61.29578196903071) rotate(0 56.547520218554155 50.73422374748782)"><path d="M74.94 2.81 C83.4 4.97, 91.97 11.63, 98.24 18 C104.52 24.36, 110.55 32.7, 112.6 40.97 C114.65 49.25, 113.69 59.54, 110.54 67.67 C107.39 75.8, 100.85 84.18, 93.72 89.76 C86.59 95.33, 76.88 99.59, 67.78 101.12 C58.68 102.64, 48.09 101.59, 39.13 98.88 C30.17 96.17, 20.47 91.19, 14.04 84.86 C7.61 78.52, 2.27 69.3, 0.52 60.89 C-1.23 52.48, 0.28 42.51, 3.53 34.38 C6.78 26.25, 12.94 17.7, 20.02 12.12 C27.1 6.55, 35.16 1.55, 46.03 0.94 C56.9 0.32, 77.1 6.15, 85.26 8.44 C93.42 10.73, 95.46 14.23, 94.99 14.69 M48.06 -0.73 C56.98 -2.44, 68.63 0.8, 77.53 4.24 C86.43 7.67, 95.54 13.21, 101.46 19.86 C107.38 26.52, 111.61 35.92, 113.07 44.16 C114.52 52.39, 113.88 61.77, 110.2 69.27 C106.51 76.78, 98.53 84.06, 90.98 89.19 C83.43 94.31, 73.84 98.46, 64.91 100.02 C55.98 101.57, 46.02 101.64, 37.39 98.52 C28.76 95.4, 19.22 87.79, 13.14 81.3 C7.05 74.81, 2.24 67.7, 0.86 59.56 C-0.52 51.43, 1.35 40.34, 4.88 32.47 C8.41 24.6, 14.98 17.71, 22.04 12.36 C29.11 7, 43.17 2.23, 47.28 0.32 C51.38 -1.58, 46.47 -0.09, 46.65 0.91" stroke="#1e1e1e" stroke-width="1" fill="none"></path></g><g stroke-linecap="round" transform="translate(2508.058462998626 59.71033747692172) rotate(0 55.754797972499546 52.84814973696649)"><path d="M31.84 5.87 C39.43 1.33, 51.14 -0.91, 60.18 -0.42 C69.23 0.06, 78.48 3.78, 86.12 8.78 C93.75 13.77, 101.85 21.69, 105.98 29.55 C110.1 37.4, 111.44 46.96, 110.87 55.89 C110.3 64.83, 107.8 75.66, 102.57 83.17 C97.33 90.68, 87.81 97.33, 79.44 100.97 C71.07 104.6, 61.49 105.6, 52.35 104.97 C43.2 104.34, 32.23 101.97, 24.56 97.2 C16.89 92.43, 10.35 84.19, 6.32 76.36 C2.28 68.53, -0.11 58.93, 0.35 50.2 C0.81 41.47, 2.99 31.78, 9.08 23.98 C15.17 16.18, 31.41 7.08, 36.9 3.41 C42.39 -0.25, 41.81 1.29, 42.02 2.01 M40.72 1.59 C49.28 -1.46, 61.74 0.46, 70.81 2.69 C79.89 4.92, 88.71 8.8, 95.17 14.95 C101.63 21.11, 107.03 31.18, 109.59 39.61 C112.15 48.03, 112.77 57.42, 110.51 65.51 C108.26 73.6, 102.72 81.83, 96.03 88.15 C89.34 94.46, 79.23 100.5, 70.36 103.39 C61.49 106.28, 51.46 107.41, 42.8 105.5 C34.14 103.6, 25.22 98.08, 18.4 91.95 C11.58 85.82, 4.41 77.18, 1.87 68.73 C-0.67 60.27, 0.9 50.2, 3.16 41.2 C5.42 32.21, 9.23 21.19, 15.43 14.74 C21.64 8.29, 36.34 4.37, 40.4 2.5 C44.46 0.62, 39.73 2.52, 39.79 3.51" stroke="#1e1e1e" stroke-width="1" fill="none"></path></g><g transform="translate(2401.3052005299537 13.203965708391138) rotate(0 63.59992980957031 12.5)"><text x="0" y="17.52" font-family="Virgil, Segoe UI Emoji" font-size="20px" fill="#1e1e1e" text-anchor="start" style="white-space: pre;" direction="ltr" dominant-baseline="alphabetic">multi process</text></g><g transform="translate(2344.2291988140305 83.34959737170823) rotate(0 35.06397247314453 10)"><text x="0" y="14.016" font-family="Virgil, Segoe UI Emoji" font-size="16px" fill="#1e1e1e" text-anchor="start" style="white-space: pre;" direction="ltr" dominant-baseline="alphabetic">process 1</text></g><g transform="translate(2529.0135292466653 79.83378282699277) rotate(0 38.59197235107422 10)"><text x="0" y="14.016" font-family="Virgil, Segoe UI Emoji" font-size="16px" fill="#1e1e1e" text-anchor="start" style="white-space: pre;" direction="ltr" dominant-baseline="alphabetic">process 2</text></g><g stroke-linecap="round" transform="translate(2357.969717745641 108.33063523493092) rotate(0 23.25318588426535 25)"><path d="M11.63 0 C19.79 0.25, 30.26 0.3, 34.88 0 M11.63 0 C17.93 -0.66, 24.38 -0.28, 34.88 0 M34.88 0 C41.69 -0.28, 48.16 2.41, 46.51 11.63 M34.88 0 C44.85 -0.69, 45.09 4.67, 46.51 11.63 M46.51 11.63 C47.83 16.36, 47.2 22.75, 46.51 38.37 M46.51 11.63 C45.68 17.97, 45.41 24.11, 46.51 38.37 M46.51 38.37 C48.03 47.67, 44.13 50.54, 34.88 50 M46.51 38.37 C44.39 45.32, 42.22 48.08, 34.88 50 M34.88 50 C27.68 48.73, 19.91 51.03, 11.63 50 M34.88 50 C29.81 49.97, 24.15 49.88, 11.63 50 M11.63 50 C4.64 48.71, 0.82 47.45, 0 38.37 M11.63 50 C2.97 51.38, -0.1 45.49, 0 38.37 M0 38.37 C1.91 31.94, -1.27 21.68, 0 11.63 M0 38.37 C0.92 28.27, -0.43 19.17, 0 11.63 M0 11.63 C-0.07 3.97, 2.9 -0.4, 11.63 0 M0 11.63 C-1.15 2.14, 4.09 -1.27, 11.63 0" stroke="#1e1e1e" stroke-width="1" fill="none"></path></g><g transform="translate(2364.4229158369376 113.33063523493092) rotate(0 16.79998779296875 20)"><text x="16.79998779296875" y="14.016" font-family="Virgil, Segoe UI Emoji" font-size="16px" fill="#1e1e1e" text-anchor="middle" style="white-space: pre;" direction="ltr" dominant-baseline="alphabetic">RAM</text><text x="16.79998779296875" y="34.016" font-family="Virgil, Segoe UI Emoji" font-size="16px" fill="#1e1e1e" text-anchor="middle" style="white-space: pre;" direction="ltr" dominant-baseline="alphabetic">1</text></g><g stroke-linecap="round" transform="translate(2539.2388713434357 101.82748764286919) rotate(0 23.25318588426535 25)"><path d="M11.63 0 C14.39 -1.21, 20.82 1.56, 34.88 0 M11.63 0 C20.78 0.41, 28.72 -0.8, 34.88 0 M34.88 0 C40.87 -0.78, 45.25 5.58, 46.51 11.63 M34.88 0 C41.39 -1.33, 44.51 3.35, 46.51 11.63 M46.51 11.63 C45 17.91, 46.56 27.06, 46.51 38.37 M46.51 11.63 C45.69 21.04, 46.33 31.7, 46.51 38.37 M46.51 38.37 C45.49 47.53, 42.33 48.32, 34.88 50 M46.51 38.37 C44.44 46.36, 41.85 48.89, 34.88 50 M34.88 50 C25.98 49.68, 19.04 51.34, 11.63 50 M34.88 50 C27.26 49.3, 18.13 50.24, 11.63 50 M11.63 50 C5.49 49.15, 1.01 44.17, 0 38.37 M11.63 50 C5.81 50.36, -1.95 47.83, 0 38.37 M0 38.37 C1.23 31.8, -0.89 26.75, 0 11.63 M0 38.37 C-0.01 28.78, 0.72 21.41, 0 11.63 M0 11.63 C0.78 5.64, 5.07 1.48, 11.63 0 M0 11.63 C-0.11 6.07, 3.92 0.6, 11.63 0" stroke="#1e1e1e" stroke-width="1" fill="none"></path></g><g transform="translate(2545.6920694347323 106.82748764286919) rotate(0 16.79998779296875 20)"><text x="16.79998779296875" y="14.016" font-family="Virgil, Segoe UI Emoji" font-size="16px" fill="#1e1e1e" text-anchor="middle" style="white-space: pre;" direction="ltr" dominant-baseline="alphabetic">RAM</text><text x="16.79998779296875" y="34.016" font-family="Virgil, Segoe UI Emoji" font-size="16px" fill="#1e1e1e" text-anchor="middle" style="white-space: pre;" direction="ltr" dominant-baseline="alphabetic">2</text></g><g stroke-linecap="round" transform="translate(2438.2989053458305 87.71985683751393) rotate(0 34.879778826397796 25)"><path d="M12.5 0 C27.8 -1.18, 42.33 1.19, 57.26 0 M12.5 0 C26.46 -0.42, 39.3 1.11, 57.26 0 M57.26 0 C65.96 0.74, 67.91 2.97, 69.76 12.5 M57.26 0 C63.64 -0.22, 70.21 3.3, 69.76 12.5 M69.76 12.5 C71.54 21.13, 67.93 31.39, 69.76 37.5 M69.76 12.5 C70.64 21.41, 69.47 30.87, 69.76 37.5 M69.76 37.5 C71.21 46.01, 67.39 50.19, 57.26 50 M69.76 37.5 C68.5 45.14, 66.43 48.04, 57.26 50 M57.26 50 C42.43 49.06, 30.3 49.16, 12.5 50 M57.26 50 C41.3 50.56, 23.47 50.32, 12.5 50 M12.5 50 C3.09 50.26, 1.8 45.5, 0 37.5 M12.5 50 C5.19 52.23, -1.05 44.72, 0 37.5 M0 37.5 C-0.73 28.02, -0.35 17.81, 0 12.5 M0 37.5 C0.59 30.33, -0.02 25.06, 0 12.5 M0 12.5 C0.83 3.53, 4.83 1.34, 12.5 0 M0 12.5 C-0.73 1.96, 3.44 1.66, 12.5 0" stroke="#1e1e1e" stroke-width="1" fill="none"></path></g><g transform="translate(2447.178707060412 92.71985683751393) rotate(0 25.999977111816406 20)"><text x="25.999977111816406" y="14.016" font-family="Virgil, Segoe UI Emoji" font-size="16px" fill="#1e1e1e" text-anchor="middle" style="white-space: pre;" direction="ltr" dominant-baseline="alphabetic">shared</text><text x="25.999977111816406" y="34.016" font-family="Virgil, Segoe UI Emoji" font-size="16px" fill="#1e1e1e" text-anchor="middle" style="white-space: pre;" direction="ltr" dominant-baseline="alphabetic">RAM</text></g><g transform="translate(2651.276948785805 75.56478239801163) rotate(0 32.407981872558594 40)"><text x="0" y="14.016" font-family="Virgil, Segoe UI Emoji" font-size="16px" fill="#1e1e1e" text-anchor="start" style="white-space: pre;" direction="ltr" dominant-baseline="alphabetic">isolation</text><text x="0" y="34.016" font-family="Virgil, Segoe UI Emoji" font-size="16px" fill="#1e1e1e" text-anchor="start" style="white-space: pre;" direction="ltr" dominant-baseline="alphabetic">- code</text><text x="0" y="54.016" font-family="Virgil, Segoe UI Emoji" font-size="16px" fill="#1e1e1e" text-anchor="start" style="white-space: pre;" direction="ltr" dominant-baseline="alphabetic">- heap</text><text x="0" y="74.016" font-family="Virgil, Segoe UI Emoji" font-size="16px" fill="#1e1e1e" text-anchor="start" style="white-space: pre;" direction="ltr" dominant-baseline="alphabetic">- stack</text></g><g transform="translate(2414.5172379641954 204.51426775620985) rotate(0 57.65596008300781 10)"><text x="0" y="14.016" font-family="Virgil, Segoe UI Emoji" font-size="16px" fill="#1e1e1e" text-anchor="start" style="white-space: pre;" direction="ltr" dominant-baseline="alphabetic">multi threading</text></g><g stroke-linecap="round" transform="translate(2325.7323464060914 235.1661946036504) rotate(0 150.88146749903945 80.59342834887389)"><path d="M158.57 -0.19 C174.99 -0.87, 192.49 3.66, 208.41 7.28 C224.33 10.89, 241.33 15.44, 254.08 21.53 C266.82 27.61, 277.08 35.58, 284.89 43.78 C292.69 51.99, 298.66 61.8, 300.92 70.75 C303.18 79.71, 302.25 88.73, 298.46 97.5 C294.68 106.27, 287.59 115.47, 278.21 123.37 C268.83 131.27, 255.97 139.17, 242.17 144.91 C228.36 150.64, 211.67 155, 195.35 157.78 C179.03 160.56, 161.46 161.96, 144.24 161.61 C127.02 161.26, 107.93 159.35, 92.04 155.67 C76.16 151.98, 61.39 145.72, 48.93 139.5 C36.47 133.27, 25.1 126.34, 17.27 118.31 C9.43 110.28, 4.16 100.55, 1.91 91.33 C-0.34 82.11, -0.01 72.03, 3.74 62.98 C7.49 53.93, 14.98 44.91, 24.41 37.04 C33.84 29.17, 46.74 21.27, 60.33 15.77 C73.91 10.26, 86.37 6.36, 105.93 4.03 C125.48 1.7, 162.53 1.53, 177.66 1.76 C192.78 2, 197.02 4.08, 196.68 5.42 M84.62 7.62 C98.14 2.85, 118.25 2.51, 135.06 1.74 C151.86 0.97, 168.8 0.88, 185.46 3.01 C202.12 5.15, 220.42 9.52, 235 14.54 C249.57 19.56, 262.9 25.82, 272.91 33.13 C282.92 40.44, 290.42 49.66, 295.04 58.39 C299.67 67.13, 301.9 76.66, 300.66 85.53 C299.42 94.39, 294.26 102.95, 287.59 111.59 C280.92 120.23, 272.37 130.51, 260.63 137.37 C248.88 144.22, 232.74 149.06, 217.11 152.74 C201.47 156.43, 183.97 158.36, 166.81 159.47 C149.65 160.57, 131 161.46, 114.14 159.36 C97.29 157.27, 79.67 152.27, 65.68 146.88 C51.69 141.5, 40.27 134.58, 30.22 127.05 C20.17 119.52, 10.62 110.35, 5.39 101.73 C0.17 93.11, -2.29 84.47, -1.13 75.32 C0.03 66.16, 5.12 55.3, 12.36 46.81 C19.61 38.32, 30.15 30.78, 42.32 24.38 C54.5 17.98, 78.33 10.91, 85.4 8.41 C92.47 5.9, 83.85 8.12, 84.74 9.38" stroke="#1e1e1e" stroke-width="1" fill="none"></path></g><g transform="translate(2419.802052937892 254.19152850895836) rotate(0 35.06397247314453 10)"><text x="0" y="14.016" font-family="Virgil, Segoe UI Emoji" font-size="16px" fill="#1e1e1e" text-anchor="start" style="white-space: pre;" direction="ltr" dominant-baseline="alphabetic">1 process</text></g><g stroke-linecap="round" transform="translate(2345.814643306139 288.01434434061696) rotate(0 47.29909401458485 35.5)"><path d="M54.71 0.84 C62.91 1.48, 72.46 5.28, 78.66 9.61 C84.85 13.93, 89.48 20.68, 91.87 26.79 C94.27 32.9, 95.44 40.39, 93.02 46.27 C90.61 52.16, 84.09 58.15, 77.38 62.12 C70.66 66.09, 61.13 69.14, 52.71 70.1 C44.29 71.07, 34.45 70.68, 26.85 67.93 C19.25 65.17, 11.48 58.97, 7.13 53.58 C2.78 48.18, 0.48 41.97, 0.74 35.54 C1 29.11, 4.14 20.52, 8.68 15.01 C13.22 9.5, 19.11 4.53, 28 2.46 C36.88 0.38, 55.33 2.23, 61.99 2.58 C68.64 2.93, 68.23 4.07, 67.91 4.54 M27.94 4.2 C34.99 1.4, 47.08 -0.49, 55.46 0.14 C63.84 0.76, 72.17 3.47, 78.22 7.96 C84.27 12.46, 89.23 21.01, 91.78 27.11 C94.34 33.22, 95.68 38.51, 93.54 44.61 C91.39 50.7, 85.73 59.24, 78.92 63.69 C72.11 68.15, 61.13 70.81, 52.68 71.33 C44.22 71.86, 35.92 69.54, 28.2 66.83 C20.48 64.13, 10.95 60.52, 6.34 55.1 C1.74 49.68, 0.43 40.66, 0.58 34.31 C0.74 27.96, 2.92 22.03, 7.29 17 C11.66 11.96, 23.27 6.47, 26.81 4.08 C30.34 1.69, 28.11 2.38, 28.51 2.64" stroke="#1e1e1e" stroke-width="1" fill="none"></path></g><g transform="translate(2366.992247584773 303.41205360849455) rotate(0 26.175979614257812 20)"><text x="26.175979614257812" y="14.016" font-family="Virgil, Segoe UI Emoji" font-size="16px" fill="#1e1e1e" text-anchor="middle" style="white-space: pre;" direction="ltr" dominant-baseline="alphabetic">thread</text><text x="26.175979614257812" y="34.016" font-family="Virgil, Segoe UI Emoji" font-size="16px" fill="#1e1e1e" text-anchor="middle" style="white-space: pre;" direction="ltr" dominant-baseline="alphabetic">1</text></g><g stroke-linecap="round" transform="translate(2505.6802962604634 284.75171568016646) rotate(0 47.29909401458485 35.5)"><path d="M57.29 0.54 C65.44 1.32, 75.42 5.59, 81.34 10.32 C87.26 15.06, 91.19 22.47, 92.82 28.95 C94.44 35.42, 94.17 43.24, 91.12 49.17 C88.06 55.1, 81.22 60.74, 74.49 64.53 C67.76 68.31, 59.23 71.55, 50.74 71.88 C42.26 72.22, 31.19 69.94, 23.57 66.53 C15.95 63.12, 8.81 57.14, 5.01 51.42 C1.21 45.7, 0.05 38.39, 0.77 32.23 C1.49 26.06, 4.23 19.32, 9.34 14.42 C14.45 9.53, 22.52 5.02, 31.43 2.85 C40.34 0.68, 56.71 1.32, 62.8 1.42 C68.9 1.51, 68.36 2.83, 67.99 3.44 M58.33 1.43 C66.43 2.29, 75.2 5.71, 81.34 10.21 C87.49 14.71, 93.4 22.2, 95.22 28.43 C97.03 34.67, 95.93 41.67, 92.24 47.62 C88.55 53.56, 80.31 60.28, 73.06 64.1 C65.81 67.91, 56.77 70.14, 48.73 70.5 C40.68 70.87, 32.23 69.57, 24.79 66.28 C17.36 63, 8.24 56.55, 4.09 50.8 C-0.06 45.06, -0.99 38.04, -0.1 31.82 C0.79 25.59, 4.06 18.23, 9.42 13.46 C14.77 8.68, 23.99 5.03, 32.05 3.18 C40.1 1.34, 53.29 2.63, 57.73 2.4 C62.17 2.17, 58.91 1.32, 58.69 1.81" stroke="#1e1e1e" stroke-width="1" fill="none"></path></g><g transform="translate(2526.8579005390975 300.14942494804404) rotate(0 26.175979614257812 20)"><text x="26.175979614257812" y="14.016" font-family="Virgil, Segoe UI Emoji" font-size="16px" fill="#1e1e1e" text-anchor="middle" style="white-space: pre;" direction="ltr" dominant-baseline="alphabetic">thread</text><text x="26.175979614257812" y="34.016" font-family="Virgil, Segoe UI Emoji" font-size="16px" fill="#1e1e1e" text-anchor="middle" style="white-space: pre;" direction="ltr" dominant-baseline="alphabetic">1</text></g><g stroke-linecap="round" transform="translate(2445.1691648116357 280.08712188007195) rotate(0 26.6883156171682 41.485797543518686)"><path d="M13.34 0 C17.8 0.3, 25.73 -0.35, 40.03 0 M13.34 0 C23.59 -0.54, 31.22 -0.32, 40.03 0 M40.03 0 C50.76 -0.46, 52.82 2.48, 53.38 13.34 M40.03 0 C49.46 1.72, 54.96 6.07, 53.38 13.34 M53.38 13.34 C55.13 35.39, 52.27 58.45, 53.38 69.63 M53.38 13.34 C54.37 25.13, 54.42 37.22, 53.38 69.63 M53.38 69.63 C52.45 77.2, 47.72 83.44, 40.03 82.97 M53.38 69.63 C54.72 77.38, 48.59 85.11, 40.03 82.97 M40.03 82.97 C32.02 83.3, 28.93 81.07, 13.34 82.97 M40.03 82.97 C33.21 82.39, 24.93 83.06, 13.34 82.97 M13.34 82.97 C4.12 81.92, -0.05 78.59, 0 69.63 M13.34 82.97 C6.23 84.49, 1.65 77.27, 0 69.63 M0 69.63 C0.07 52.43, 0.52 32.59, 0 13.34 M0 69.63 C-0.8 54.24, 0.09 38.28, 0 13.34 M0 13.34 C1.03 4.3, 2.47 0.94, 13.34 0 M0 13.34 C-0.87 5.99, 6.24 0.54, 13.34 0" stroke="#1e1e1e" stroke-width="1" fill="none"></path></g><g transform="translate(2455.057492635835 311.57291942359063) rotate(0 16.79998779296875 10)"><text x="16.79998779296875" y="14.016" font-family="Virgil, Segoe UI Emoji" font-size="16px" fill="#1e1e1e" text-anchor="middle" style="white-space: pre;" direction="ltr" dominant-baseline="alphabetic">RAM</text></g><g transform="translate(2644.935170817369 247.8497505405224) rotate(0 32.407981872558594 50)"><text x="0" y="14.016" font-family="Virgil, Segoe UI Emoji" font-size="16px" fill="#1e1e1e" text-anchor="start" style="white-space: pre;" direction="ltr" dominant-baseline="alphabetic">shared</text><text x="0" y="34.016" font-family="Virgil, Segoe UI Emoji" font-size="16px" fill="#1e1e1e" text-anchor="start" style="white-space: pre;" direction="ltr" dominant-baseline="alphabetic">- code</text><text x="0" y="54.016" font-family="Virgil, Segoe UI Emoji" font-size="16px" fill="#1e1e1e" text-anchor="start" style="white-space: pre;" direction="ltr" dominant-baseline="alphabetic">- heap</text><text x="0" y="74.016" font-family="Virgil, Segoe UI Emoji" font-size="16px" fill="#1e1e1e" text-anchor="start" style="white-space: pre;" direction="ltr" dominant-baseline="alphabetic">isolation</text><text x="0" y="94.016" font-family="Virgil, Segoe UI Emoji" font-size="16px" fill="#1e1e1e" text-anchor="start" style="white-space: pre;" direction="ltr" dominant-baseline="alphabetic">- stack</text></g><g stroke-linecap="round"><g transform="translate(2400.2482375352142 348.2612350407587) rotate(0 30.651926847440564 0.5284814973696541)"><path d="M-0.9 1.14 C9.41 1.43, 50.71 1.16, 61.02 1.11 M0.83 0.69 C11.03 1.24, 50.06 2.44, 59.92 2.68" stroke="#1e1e1e" stroke-width="1" fill="none"></path></g><g transform="translate(2400.2482375352142 348.2612350407587) rotate(0 30.651926847440564 0.5284814973696541)"><path d="M36.2 10.56 C43.58 8.46, 47.22 6.51, 59.92 2.68 M36.2 10.56 C42.47 7.96, 50.66 5.65, 59.92 2.68" stroke="#1e1e1e" stroke-width="1" fill="none"></path></g><g transform="translate(2400.2482375352142 348.2612350407587) rotate(0 30.651926847440564 0.5284814973696541)"><path d="M36.68 -6.53 C43.87 -4.72, 47.39 -2.74, 59.92 2.68 M36.68 -6.53 C42.82 -4.24, 50.88 -1.65, 59.92 2.68" stroke="#1e1e1e" stroke-width="1" fill="none"></path></g></g><mask></mask><g stroke-linecap="round"><g transform="translate(2536.067982359218 342.4479385696924) rotate(0 -24.3101488790046 5.284814973696655)"><path d="M0.25 -0.27 C-7.88 1.58, -40.33 8.93, -48.51 10.77 M-0.28 0.77 C-8.5 2.5, -40.72 8.41, -48.89 9.9" stroke="#1e1e1e" stroke-width="1" fill="none"></path></g><g transform="translate(2536.067982359218 342.4479385696924) rotate(0 -24.3101488790046 5.284814973696655)"><path d="M-27.43 -2.69 C-35.54 2, -42.25 5.83, -48.89 9.9 M-27.43 -2.69 C-34.11 1.65, -41.98 5.46, -48.89 9.9" stroke="#1e1e1e" stroke-width="1" fill="none"></path></g><g transform="translate(2536.067982359218 342.4479385696924) rotate(0 -24.3101488790046 5.284814973696655)"><path d="M-24.36 14.05 C-33.49 12.84, -41.28 10.77, -48.89 9.9 M-24.36 14.05 C-31.98 12.86, -40.87 11.15, -48.89 9.9" stroke="#1e1e1e" stroke-width="1" fill="none"></path></g></g><mask></mask><g transform="translate(2419.802052937892 420.66320018040255) rotate(0 163.58389282226562 50)"><text x="0" y="14.016" font-family="Virgil, Segoe UI Emoji" font-size="16px" fill="#1e1e1e" text-anchor="start" style="white-space: pre;" direction="ltr" dominant-baseline="alphabetic">async</text><text x="0" y="34.016" font-family="Virgil, Segoe UI Emoji" font-size="16px" fill="#1e1e1e" text-anchor="start" style="white-space: pre;" direction="ltr" dominant-baseline="alphabetic"></text><text x="0" y="54.016" font-family="Virgil, Segoe UI Emoji" font-size="16px" fill="#1e1e1e" text-anchor="start" style="white-space: pre;" direction="ltr" dominant-baseline="alphabetic">1 thread</text><text x="0" y="74.016" font-family="Virgil, Segoe UI Emoji" font-size="16px" fill="#1e1e1e" text-anchor="start" style="white-space: pre;" direction="ltr" dominant-baseline="alphabetic">execute several functions in //</text><text x="0" y="94.016" font-family="Virgil, Segoe UI Emoji" font-size="16px" fill="#1e1e1e" text-anchor="start" style="white-space: pre;" direction="ltr" dominant-baseline="alphabetic">pause when system call (file, db, network)</text></g><g transform="translate(2055.678301250193 189.71678582985908) rotate(0 129.1439208984375 130)"><text x="0" y="14.016" font-family="Virgil, Segoe UI Emoji" font-size="16px" fill="#1e1e1e" text-anchor="start" style="white-space: pre;" direction="ltr" dominant-baseline="alphabetic">module threading</text><text x="0" y="34.016" font-family="Virgil, Segoe UI Emoji" font-size="16px" fill="#1e1e1e" text-anchor="start" style="white-space: pre;" direction="ltr" dominant-baseline="alphabetic">    - class Thread</text><text x="0" y="54.016" font-family="Virgil, Segoe UI Emoji" font-size="16px" fill="#1e1e1e" text-anchor="start" style="white-space: pre;" direction="ltr" dominant-baseline="alphabetic">        - run</text><text x="0" y="74.016" font-family="Virgil, Segoe UI Emoji" font-size="16px" fill="#1e1e1e" text-anchor="start" style="white-space: pre;" direction="ltr" dominant-baseline="alphabetic">        - start</text><text x="0" y="94.016" font-family="Virgil, Segoe UI Emoji" font-size="16px" fill="#1e1e1e" text-anchor="start" style="white-space: pre;" direction="ltr" dominant-baseline="alphabetic">        - join</text><text x="0" y="114.016" font-family="Virgil, Segoe UI Emoji" font-size="16px" fill="#1e1e1e" text-anchor="start" style="white-space: pre;" direction="ltr" dominant-baseline="alphabetic">    - synchro</text><text x="0" y="134.016" font-family="Virgil, Segoe UI Emoji" font-size="16px" fill="#1e1e1e" text-anchor="start" style="white-space: pre;" direction="ltr" dominant-baseline="alphabetic">        - lock</text><text x="0" y="154.016" font-family="Virgil, Segoe UI Emoji" font-size="16px" fill="#1e1e1e" text-anchor="start" style="white-space: pre;" direction="ltr" dominant-baseline="alphabetic">        - semaphore</text><text x="0" y="174.016" font-family="Virgil, Segoe UI Emoji" font-size="16px" fill="#1e1e1e" text-anchor="start" style="white-space: pre;" direction="ltr" dominant-baseline="alphabetic">        - condition</text><text x="0" y="194.016" font-family="Virgil, Segoe UI Emoji" font-size="16px" fill="#1e1e1e" text-anchor="start" style="white-space: pre;" direction="ltr" dominant-baseline="alphabetic">        - ...</text><text x="0" y="214.016" font-family="Virgil, Segoe UI Emoji" font-size="16px" fill="#1e1e1e" text-anchor="start" style="white-space: pre;" direction="ltr" dominant-baseline="alphabetic">module concurrent.futures</text><text x="0" y="234.016" font-family="Virgil, Segoe UI Emoji" font-size="16px" fill="#1e1e1e" text-anchor="start" style="white-space: pre;" direction="ltr" dominant-baseline="alphabetic">    - class ThreadPoolExecutor</text><text x="0" y="254.016" font-family="Virgil, Segoe UI Emoji" font-size="16px" fill="#1e1e1e" text-anchor="start" style="white-space: pre;" direction="ltr" dominant-baseline="alphabetic">    - class ProcessPoolExecutor</text></g><g stroke-linecap="round" transform="translate(2072.0612276686525 482.4955353726531) rotate(0 126.83555936871971 88.78489155810371)"><path d="M78.51 5.75 C91.08 0.78, 109.52 0.45, 124.85 0.37 C140.17 0.29, 156.08 1.74, 170.45 5.26 C184.82 8.79, 199.43 14.52, 211.06 21.54 C222.69 28.57, 233.23 37.83, 240.24 47.41 C247.24 56.98, 251.67 68.16, 253.09 78.97 C254.5 89.79, 252.66 102.05, 248.74 112.3 C244.81 122.54, 238.5 131.89, 229.55 140.45 C220.6 149.01, 207.88 157.67, 195.03 163.65 C182.17 169.63, 167.25 174.1, 152.43 176.34 C137.6 178.59, 121.22 178.93, 106.09 177.13 C90.95 175.33, 74.8 171.13, 61.64 165.52 C48.47 159.92, 36.52 152.12, 27.09 143.5 C17.66 134.87, 9.56 124.2, 5.04 113.79 C0.52 103.39, -1.33 91.73, -0.04 81.09 C1.26 70.45, 6.33 59.5, 12.82 49.97 C19.31 40.43, 26.5 31.37, 38.91 23.88 C51.32 16.38, 77.8 8.27, 87.27 4.99 C96.74 1.71, 95.04 2.79, 95.71 4.2 M79.59 5.38 C92.18 0.58, 107.92 1.36, 123.08 1.27 C138.23 1.17, 156.03 1.36, 170.5 4.8 C184.98 8.24, 198.54 14.88, 209.93 21.93 C221.32 28.97, 231.81 37.41, 238.87 47.07 C245.92 56.74, 250.44 69.3, 252.28 79.92 C254.12 90.55, 253.66 100.68, 249.93 110.83 C246.2 120.99, 238.99 131.94, 229.9 140.85 C220.81 149.75, 208.11 158.3, 195.38 164.25 C182.65 170.2, 168.3 174.79, 153.53 176.56 C138.75 178.33, 121.8 176.71, 106.71 174.89 C91.61 173.07, 76.26 170.87, 62.98 165.62 C49.7 160.37, 36.75 151.61, 27.05 143.39 C17.35 135.17, 9.23 126.61, 4.77 116.3 C0.3 105.99, -0.92 92.54, 0.28 81.52 C1.47 70.51, 5.48 59.49, 11.92 50.2 C18.37 40.92, 27.94 32.84, 38.96 25.83 C49.99 18.81, 71.23 10.78, 78.06 8.09 C84.88 5.4, 79.12 8.8, 79.92 9.69" stroke="#1e1e1e" stroke-width="1" fill="none"></path></g><g transform="translate(2117.5106364424437 509.97657323587566) rotate(0 85.35193634033203 10)"><text x="0" y="14.016" font-family="Virgil, Segoe UI Emoji" font-size="16px" fill="#1e1e1e" text-anchor="start" style="white-space: pre;" direction="ltr" dominant-baseline="alphabetic">Pool (thread/process)</text></g><g stroke-linecap="round" transform="translate(2105.3555620029415 537.9860925964679) rotate(0 15.325963423720282 10.833870696078137)"><path d="M17.03 0.28 C20.17 0.45, 23.85 2.18, 26.11 3.77 C28.37 5.36, 30.36 7.53, 30.58 9.8 C30.8 12.07, 29.34 15.39, 27.42 17.39 C25.5 19.39, 22.16 21.21, 19.06 21.8 C15.96 22.39, 11.76 21.99, 8.8 20.92 C5.84 19.85, 2.71 17.51, 1.32 15.4 C-0.07 13.28, -0.5 10.49, 0.44 8.26 C1.38 6.02, 4.2 3.41, 6.97 2.01 C9.74 0.6, 15.21 0.1, 17.04 -0.17 C18.86 -0.44, 17.88 0.13, 17.94 0.38 M18.92 0.14 C22.05 0.3, 25.44 1.85, 27.43 3.7 C29.43 5.55, 30.91 8.78, 30.87 11.23 C30.83 13.68, 29.53 16.68, 27.2 18.42 C24.86 20.15, 20.26 21.47, 16.85 21.63 C13.44 21.8, 9.48 20.69, 6.74 19.41 C4 18.13, 1.42 16.15, 0.41 13.96 C-0.6 11.77, -0.56 8.33, 0.68 6.28 C1.93 4.22, 4.86 2.61, 7.88 1.63 C10.9 0.64, 16.95 0.68, 18.79 0.39 C20.62 0.09, 18.87 -0.26, 18.88 -0.14" stroke="#1e1e1e" stroke-width="1" fill="none"></path></g><g stroke-linecap="round" transform="translate(2149.2195262846235 536.6648888530437) rotate(0 15.325963423720282 10.833870696078137)"><path d="M13.35 0.04 C16.31 -0.38, 20.34 0.16, 23.1 1.43 C25.86 2.7, 28.82 5.48, 29.91 7.68 C31 9.89, 30.87 12.55, 29.63 14.67 C28.39 16.79, 25.26 19.27, 22.46 20.39 C19.66 21.51, 16.01 21.92, 12.85 21.39 C9.69 20.86, 5.64 19.03, 3.52 17.2 C1.41 15.38, 0.1 12.6, 0.17 10.42 C0.25 8.24, 1.73 5.85, 3.99 4.11 C6.25 2.36, 12.02 0.61, 13.72 -0.06 C15.42 -0.73, 14.19 -0.04, 14.2 0.09 M13.05 0.45 C15.98 0.01, 19.95 0.37, 22.73 1.5 C25.52 2.64, 28.61 5.05, 29.75 7.24 C30.9 9.44, 30.62 12.44, 29.61 14.65 C28.61 16.87, 26.6 19.37, 23.73 20.51 C20.86 21.65, 15.77 21.97, 12.4 21.49 C9.03 21.01, 5.55 19.36, 3.52 17.65 C1.48 15.94, 0.3 13.57, 0.2 11.23 C0.11 8.88, 0.96 5.51, 2.97 3.59 C4.97 1.67, 10.65 0.24, 12.24 -0.29 C13.82 -0.81, 12.51 0.05, 12.48 0.43" stroke="#1e1e1e" stroke-width="1" fill="none"></path></g><g stroke-linecap="round" transform="translate(2190.4410830794577 535.0794443609348) rotate(0 15.325963423720282 10.833870696078137)"><path d="M13.86 0.25 C16.92 -0.22, 21.05 0.27, 23.82 1.45 C26.59 2.64, 29.55 5.03, 30.46 7.35 C31.36 9.66, 30.66 13.09, 29.27 15.35 C27.89 17.6, 25.12 19.93, 22.16 20.86 C19.19 21.79, 14.62 21.6, 11.47 20.92 C8.31 20.24, 5.12 18.58, 3.22 16.79 C1.32 15, -0.09 12.34, 0.06 10.16 C0.22 7.98, 1.81 5.32, 4.15 3.71 C6.49 2.11, 12.38 1.05, 14.11 0.52 C15.85 -0.01, 14.52 0.46, 14.54 0.55 M17.21 -0.55 C20.4 -0.63, 24.37 1.13, 26.52 2.82 C28.67 4.5, 29.81 7.12, 30.09 9.56 C30.37 12, 30.02 15.45, 28.19 17.48 C26.36 19.51, 22.43 21.36, 19.12 21.75 C15.81 22.15, 11.18 20.96, 8.32 19.87 C5.45 18.78, 3.19 17.14, 1.94 15.21 C0.69 13.29, 0.09 10.63, 0.82 8.32 C1.55 6.01, 3.72 2.75, 6.3 1.33 C8.89 -0.08, 14.51 -0.06, 16.34 -0.18 C18.16 -0.31, 17.1 0.43, 17.25 0.58" stroke="#1e1e1e" stroke-width="1" fill="none"></path></g><g stroke-linecap="round" transform="translate(2236.418973350618 537.1933703504135) rotate(0 15.325963423720282 10.833870696078137)"><path d="M16.44 -0.38 C19.55 -0.24, 23.57 1.71, 25.97 3.42 C28.38 5.14, 30.47 7.61, 30.86 9.92 C31.26 12.23, 30.32 15.39, 28.36 17.29 C26.39 19.18, 22.31 20.65, 19.06 21.29 C15.81 21.93, 11.69 22.15, 8.83 21.12 C5.97 20.08, 3.37 17.31, 1.9 15.08 C0.43 12.86, -0.8 10.01, 0.04 7.77 C0.88 5.52, 4.01 2.96, 6.94 1.61 C9.88 0.26, 15.67 -0.22, 17.64 -0.33 C19.61 -0.44, 18.85 0.77, 18.78 0.94 M15.96 0.15 C19.06 0.01, 23 1.15, 25.45 2.71 C27.89 4.26, 30.12 7.13, 30.62 9.5 C31.12 11.86, 30.29 14.91, 28.47 16.9 C26.65 18.89, 22.88 20.81, 19.7 21.42 C16.52 22.03, 12.5 21.59, 9.37 20.55 C6.25 19.51, 2.58 17.15, 0.97 15.18 C-0.63 13.22, -0.99 11.01, -0.24 8.76 C0.52 6.51, 2.74 3.25, 5.5 1.69 C8.25 0.12, 14.53 -0.47, 16.29 -0.61 C18.06 -0.75, 16.08 0.63, 16.08 0.84" stroke="#1e1e1e" stroke-width="1" fill="none"></path></g><g stroke-linecap="round" transform="translate(2101.127710023984 578.8112882682746) rotate(0 15.325963423720282 10.833870696078137)"><path d="M15.22 -0.31 C18.22 -0.54, 22.02 0.82, 24.52 2.31 C27.02 3.79, 29.54 6.28, 30.23 8.59 C30.91 10.9, 30.08 14.05, 28.62 16.18 C27.16 18.3, 24.41 20.44, 21.46 21.34 C18.51 22.24, 14.05 22.43, 10.91 21.57 C7.76 20.7, 4.31 18.21, 2.59 16.15 C0.88 14.09, 0.13 11.36, 0.59 9.2 C1.06 7.04, 2.88 4.67, 5.38 3.17 C7.87 1.67, 13.65 0.7, 15.57 0.2 C17.48 -0.29, 16.82 0.11, 16.87 0.22 M15.24 0.56 C18.31 0.25, 21.77 0.48, 24.32 1.76 C26.87 3.03, 29.87 5.78, 30.52 8.22 C31.17 10.66, 29.81 14.2, 28.21 16.38 C26.62 18.55, 23.76 20.4, 20.95 21.26 C18.14 22.11, 14.45 22.19, 11.35 21.49 C8.26 20.79, 4.23 19.01, 2.39 17.04 C0.54 15.08, -0.18 12.01, 0.3 9.7 C0.79 7.38, 2.89 4.71, 5.31 3.17 C7.72 1.63, 13.27 0.99, 14.79 0.45 C16.31 -0.09, 14.33 -0.16, 14.42 -0.05" stroke="#1e1e1e" stroke-width="1" fill="none"></path></g><g stroke-linecap="round" transform="translate(2144.991674305666 577.4900845248504) rotate(0 15.325963423720282 10.833870696078137)"><path d="M15.73 0.03 C18.76 0.03, 23.14 1.24, 25.56 2.84 C27.99 4.45, 29.76 7.28, 30.27 9.66 C30.79 12.03, 30.32 15.11, 28.66 17.09 C26.99 19.08, 23.43 21.03, 20.28 21.58 C17.13 22.14, 12.77 21.39, 9.76 20.42 C6.74 19.44, 3.71 17.65, 2.2 15.73 C0.68 13.8, 0.07 11.1, 0.67 8.89 C1.27 6.68, 3.07 3.94, 5.79 2.46 C8.51 0.98, 14.99 0.4, 16.99 0.01 C18.99 -0.37, 17.85 -0.02, 17.78 0.14 M14.8 -0.53 C17.87 -0.83, 22.81 0.5, 25.3 2.15 C27.79 3.79, 29.21 6.95, 29.74 9.35 C30.27 11.76, 29.9 14.57, 28.51 16.57 C27.12 18.57, 24.45 20.51, 21.4 21.33 C18.36 22.15, 13.42 22.27, 10.23 21.49 C7.04 20.71, 3.89 18.68, 2.27 16.66 C0.64 14.65, -0.05 11.67, 0.48 9.4 C1 7.13, 3.02 4.64, 5.42 3.03 C7.82 1.41, 13.15 0.19, 14.87 -0.28 C16.59 -0.74, 15.56 0.1, 15.74 0.22" stroke="#1e1e1e" stroke-width="1" fill="none"></path></g><g stroke-linecap="round" transform="translate(2186.2132311005003 575.9046400327414) rotate(0 15.325963423720282 10.833870696078137)"><path d="M12.83 0.15 C15.88 -0.29, 20.08 0.54, 22.97 1.81 C25.86 3.08, 29.04 5.54, 30.2 7.76 C31.36 9.98, 31.14 13.12, 29.94 15.14 C28.75 17.15, 25.87 18.84, 23.02 19.87 C20.18 20.9, 16.07 21.64, 12.86 21.34 C9.64 21.03, 5.91 19.78, 3.74 18.03 C1.57 16.29, -0.21 13.24, -0.17 10.85 C-0.14 8.46, 1.58 5.53, 3.96 3.69 C6.33 1.86, 12.28 0.45, 14.08 -0.14 C15.88 -0.74, 14.77 -0.16, 14.76 0.11 M18.34 -0.16 C21.4 0.28, 24.47 2.51, 26.5 4.42 C28.53 6.34, 30.3 9.02, 30.51 11.32 C30.71 13.62, 29.81 16.44, 27.71 18.22 C25.6 19.99, 21.22 21.59, 17.89 21.97 C14.55 22.35, 10.49 21.7, 7.7 20.51 C4.91 19.32, 2.25 16.99, 1.14 14.81 C0.02 12.64, -0.04 9.76, 1.01 7.48 C2.06 5.19, 4.5 2.34, 7.44 1.12 C10.38 -0.09, 16.76 0.42, 18.65 0.19 C20.55 -0.03, 18.89 -0.42, 18.81 -0.22" stroke="#1e1e1e" stroke-width="1" fill="none"></path></g><g stroke-linecap="round" transform="translate(2232.1911213716608 578.01856602222) rotate(0 15.325963423720282 10.833870696078137)"><path d="M15.21 0.26 C18.41 0.22, 23.07 1.52, 25.66 3.06 C28.25 4.59, 30.23 7.33, 30.75 9.47 C31.27 11.61, 30.44 13.99, 28.79 15.89 C27.15 17.8, 23.98 20, 20.89 20.91 C17.81 21.82, 13.46 22.12, 10.28 21.36 C7.1 20.6, 3.45 18.46, 1.82 16.37 C0.18 14.28, -0.2 11.17, 0.46 8.83 C1.12 6.48, 3.23 3.77, 5.78 2.28 C8.34 0.8, 14.03 0.18, 15.76 -0.11 C17.49 -0.4, 16.12 0.4, 16.18 0.56 M11.99 0.64 C14.97 0.24, 19.75 0.7, 22.83 1.83 C25.91 2.97, 29.3 5.27, 30.45 7.46 C31.61 9.65, 30.99 12.79, 29.77 14.98 C28.56 17.16, 25.97 19.41, 23.16 20.56 C20.36 21.71, 16.2 22.26, 12.94 21.87 C9.68 21.49, 5.84 20.13, 3.63 18.25 C1.41 16.36, -0.43 12.96, -0.35 10.57 C-0.27 8.17, 1.81 5.72, 4.1 3.89 C6.39 2.05, 11.9 0.11, 13.39 -0.45 C14.88 -1.02, 13.15 0.32, 13.02 0.48" stroke="#1e1e1e" stroke-width="1" fill="none"></path></g><g stroke-linecap="round" transform="translate(2329.960198385049 564.9386489623208) rotate(0 70.55227989885043 20.346537648732095)"><path d="M10.17 0 C55.29 -0.28, 103.14 -0.35, 130.93 0 M10.17 0 C40.17 -1.16, 68.82 -0.55, 130.93 0 M130.93 0 C137.02 1.79, 140.76 4.37, 141.1 10.17 M130.93 0 C139.38 -0.15, 140.05 3.52, 141.1 10.17 M141.1 10.17 C140.74 17.29, 140.52 23.1, 141.1 30.52 M141.1 10.17 C141.1 18.31, 142.11 26.45, 141.1 30.52 M141.1 30.52 C141.26 38.1, 138.26 41.13, 130.93 40.69 M141.1 30.52 C140.26 36.47, 136.57 40.48, 130.93 40.69 M130.93 40.69 C100.2 38.14, 71.85 39.51, 10.17 40.69 M130.93 40.69 C98.42 40.16, 64.28 40.03, 10.17 40.69 M10.17 40.69 C3.93 38.99, 0.3 37.95, 0 30.52 M10.17 40.69 C1.62 42.5, 0.47 38.38, 0 30.52 M0 30.52 C1.68 21.19, -1.18 15.84, 0 10.17 M0 30.52 C-0.17 25.97, 0.77 21.85, 0 10.17 M0 10.17 C1.8 3.58, 2.63 -1.11, 10.17 0 M0 10.17 C-1.01 2.9, 5.68 -2.23, 10.17 0" stroke="#1e1e1e" stroke-width="1" fill="none"></path></g><g transform="translate(2343.1722358192906 579.2076493913019) rotate(0 52.18397521972656 10)"><text x="0" y="14.016" font-family="Virgil, Segoe UI Emoji" font-size="16px" fill="#1e1e1e" text-anchor="start" style="white-space: pre;" direction="ltr" dominant-baseline="alphabetic">waiting queue</text></g><g transform="translate(2056.2067827475626 457.6569049962789) rotate(0 124.25592803955078 10)"><text x="0" y="14.016" font-family="Virgil, Segoe UI Emoji" font-size="16px" fill="#1e1e1e" text-anchor="start" style="white-space: pre;" direction="ltr" dominant-baseline="alphabetic">GIL limitation on multithreading</text></g><g transform="translate(2049.336523281757 671.1634299336231) rotate(0 244.0878448486328 60)"><text x="0" y="14.016" font-family="Virgil, Segoe UI Emoji" font-size="16px" fill="#1e1e1e" text-anchor="start" style="white-space: pre;" direction="ltr" dominant-baseline="alphabetic">module multiprocessing</text><text x="0" y="34.016" font-family="Virgil, Segoe UI Emoji" font-size="16px" fill="#1e1e1e" text-anchor="start" style="white-space: pre;" direction="ltr" dominant-baseline="alphabetic">    - class Process (start, run, join)</text><text x="0" y="54.016" font-family="Virgil, Segoe UI Emoji" font-size="16px" fill="#1e1e1e" text-anchor="start" style="white-space: pre;" direction="ltr" dominant-baseline="alphabetic">    - class Pool (low level compared to ProcessPoolExecutor)</text><text x="0" y="74.016" font-family="Virgil, Segoe UI Emoji" font-size="16px" fill="#1e1e1e" text-anchor="start" style="white-space: pre;" direction="ltr" dominant-baseline="alphabetic">    - classes Queue, Pipe: communication between processes</text><text x="0" y="94.016" font-family="Virgil, Segoe UI Emoji" font-size="16px" fill="#1e1e1e" text-anchor="start" style="white-space: pre;" direction="ltr" dominant-baseline="alphabetic">    - class Lock: synchro</text><text x="0" y="114.016" font-family="Virgil, Segoe UI Emoji" font-size="16px" fill="#1e1e1e" text-anchor="start" style="white-space: pre;" direction="ltr" dominant-baseline="alphabetic">    - classes Value, Array, Manager: shared memory</text></g><g transform="translate(1895.1853291383761 858.8500281961873) rotate(0 88.46204629261297 60)"><text x="0" y="14.016" font-family="Virgil, Segoe UI Emoji" font-size="16px" fill="#1e1e1e" text-anchor="start" style="white-space: pre;" direction="ltr" dominant-baseline="alphabetic">Filesystem</text><text x="0" y="34.016" font-family="Virgil, Segoe UI Emoji" font-size="16px" fill="#1e1e1e" text-anchor="start" style="white-space: pre;" direction="ltr" dominant-baseline="alphabetic"></text><text x="0" y="54.016" font-family="Virgil, Segoe UI Emoji" font-size="16px" fill="#1e1e1e" text-anchor="start" style="white-space: pre;" direction="ltr" dominant-baseline="alphabetic"></text><text x="0" y="74.016" font-family="Virgil, Segoe UI Emoji" font-size="16px" fill="#1e1e1e" text-anchor="start" style="white-space: pre;" direction="ltr" dominant-baseline="alphabetic"></text><text x="0" y="94.016" font-family="Virgil, Segoe UI Emoji" font-size="16px" fill="#1e1e1e" text-anchor="start" style="white-space: pre;" direction="ltr" dominant-baseline="alphabetic"></text><text x="0" y="114.016" font-family="Virgil, Segoe UI Emoji" font-size="16px" fill="#1e1e1e" text-anchor="start" style="white-space: pre;" direction="ltr" dominant-baseline="alphabetic"></text></g><g transform="translate(2213.3620103558787 862.4737319814421) rotate(0 14.407989501953125 10)"><text x="0" y="14.016" font-family="Virgil, Segoe UI Emoji" font-size="16px" fill="#1e1e1e" text-anchor="start" style="white-space: pre;" direction="ltr" dominant-baseline="alphabetic">Web</text></g><g transform="translate(2406.59001550365 867.2300654577691) rotate(0 84.39994812011719 10)"><text x="0" y="14.016" font-family="Virgil, Segoe UI Emoji" font-size="16px" fill="#1e1e1e" text-anchor="start" style="white-space: pre;" direction="ltr" dominant-baseline="alphabetic">Scientific | Data | IA</text></g><g transform="translate(2653.390874775284 872.5148804314657) rotate(0 133.8239288330078 30)"><text x="0" y="14.016" font-family="Virgil, Segoe UI Emoji" font-size="16px" fill="#1e1e1e" text-anchor="start" style="white-space: pre;" direction="ltr" dominant-baseline="alphabetic">packaging</text><text x="0" y="34.016" font-family="Virgil, Segoe UI Emoji" font-size="16px" fill="#1e1e1e" text-anchor="start" style="white-space: pre;" direction="ltr" dominant-baseline="alphabetic">- code with dependencies</text><text x="0" y="54.016" font-family="Virgil, Segoe UI Emoji" font-size="16px" fill="#1e1e1e" text-anchor="start" style="white-space: pre;" direction="ltr" dominant-baseline="alphabetic">- python 100% or python + C/C++</text></g><g stroke-linecap="round"><g transform="translate(2709.9383949938388 940.1605120947829) rotate(0 -18.496852407938377 34.61553807771304)"><path d="M-0.67 -0.58 C-7.12 10.86, -32.16 57.19, -38.07 68.77 M1.18 1.74 C-4.96 13.32, -29.65 58.69, -35.92 70.07" stroke="#1e1e1e" stroke-width="1" fill="none"></path></g><g transform="translate(2709.9383949938388 940.1605120947829) rotate(0 -18.496852407938377 34.61553807771304)"><path d="M-32.16 45.36 C-34.4 52.17, -35.52 64.04, -35.92 70.07 M-32.16 45.36 C-33.98 52.31, -34.89 59.72, -35.92 70.07" stroke="#1e1e1e" stroke-width="1" fill="none"></path></g><g transform="translate(2709.9383949938388 940.1605120947829) rotate(0 -18.496852407938377 34.61553807771304)"><path d="M-17.15 53.56 C-24.64 57.43, -31 66.43, -35.92 70.07 M-17.15 53.56 C-22.99 58.16, -27.99 63.34, -35.92 70.07" stroke="#1e1e1e" stroke-width="1" fill="none"></path></g></g><mask></mask><g transform="translate(2641.235800335782 1021.5466626897112) rotate(0 49.63996887207031 10)"><text x="0" y="14.016" font-family="Virgil, Segoe UI Emoji" font-size="16px" fill="#1e1e1e" text-anchor="start" style="white-space: pre;" direction="ltr" dominant-baseline="alphabetic">copy sources</text></g><g stroke-linecap="round"><g transform="translate(2758.030211254478 938.5750676026738) rotate(0 49.14877925537894 28.273760109277077)"><path d="M0.85 0.96 C17.21 10.43, 82.31 47.6, 98.41 57.03 M-0.16 0.42 C16.02 9.5, 80.85 45.94, 97.52 55.16" stroke="#1e1e1e" stroke-width="1" fill="none"></path></g><g transform="translate(2758.030211254478 938.5750676026738) rotate(0 49.14877925537894 28.273760109277077)"><path d="M72.84 51.18 C82.45 52.48, 89.66 52.13, 97.52 55.16 M72.84 51.18 C81.92 51.73, 91.91 53.21, 97.52 55.16" stroke="#1e1e1e" stroke-width="1" fill="none"></path></g><g transform="translate(2758.030211254478 938.5750676026738) rotate(0 49.14877925537894 28.273760109277077)"><path d="M81.17 36.25 C88.1 42.45, 92.62 46.95, 97.52 55.16 M81.17 36.25 C87.12 42.55, 93.91 49.75, 97.52 55.16" stroke="#1e1e1e" stroke-width="1" fill="none"></path></g></g><mask></mask><g stroke-linecap="round"><g transform="translate(2864.254992225781 938.5750676026738) rotate(0 -0.528481497369512 28.53800085796192)"><path d="M-1.18 0.4 C-1.17 10.01, -0.35 48.76, -0.3 58.25 M0.4 -0.43 C0.36 8.83, -0.52 46.88, -0.85 56.74" stroke="#1e1e1e" stroke-width="1" fill="none"></path></g><g transform="translate(2864.254992225781 938.5750676026738) rotate(0 -0.528481497369512 28.53800085796192)"><path d="M-8.76 33.02 C-5.86 40.7, -2.46 46, -0.85 56.74 M-8.76 33.02 C-6.29 40.74, -4.57 48.11, -0.85 56.74" stroke="#1e1e1e" stroke-width="1" fill="none"></path></g><g transform="translate(2864.254992225781 938.5750676026738) rotate(0 -0.528481497369512 28.53800085796192)"><path d="M8.34 33.49 C6.67 40.87, 5.5 46.05, -0.85 56.74 M8.34 33.49 C5.34 41.04, 1.59 48.26, -0.85 56.74" stroke="#1e1e1e" stroke-width="1" fill="none"></path></g></g><mask></mask><g transform="translate(2812.463805483554 1009.9200697475785) rotate(0 66.20796203613281 10)"><text x="0" y="14.016" font-family="Virgil, Segoe UI Emoji" font-size="16px" fill="#1e1e1e" text-anchor="start" style="white-space: pre;" direction="ltr" dominant-baseline="alphabetic">package manager</text></g><g transform="translate(2852.6283992836484 1041.1004780923888) rotate(0 52.84796905517578 40)"><text x="0" y="14.016" font-family="Virgil, Segoe UI Emoji" font-size="16px" fill="#1e1e1e" text-anchor="start" style="white-space: pre;" direction="ltr" dominant-baseline="alphabetic">test</text><text x="0" y="34.016" font-family="Virgil, Segoe UI Emoji" font-size="16px" fill="#1e1e1e" text-anchor="start" style="white-space: pre;" direction="ltr" dominant-baseline="alphabetic">compilation</text><text x="0" y="54.016" font-family="Virgil, Segoe UI Emoji" font-size="16px" fill="#1e1e1e" text-anchor="start" style="white-space: pre;" direction="ltr" dominant-baseline="alphabetic">packaging =&gt;</text><text x="0" y="74.016" font-family="Virgil, Segoe UI Emoji" font-size="16px" fill="#1e1e1e" text-anchor="start" style="white-space: pre;" direction="ltr" dominant-baseline="alphabetic">.targ.gz, .whl</text></g><g stroke-linecap="round"><g transform="translate(2977.7803921019004 1052.9405160016959) rotate(0 32.32192836308354 0.9062222905537283)"><path d="M0.75 0.84 C11.76 0.93, 54.71 1.5, 65.5 1.53 M-0.31 0.23 C10.66 0.42, 54.08 2.63, 65 2.91" stroke="#1e1e1e" stroke-width="1" fill="none"></path></g><g transform="translate(2977.7803921019004 1052.9405160016959) rotate(0 32.32192836308354 0.9062222905537283)"><path d="M41.19 10.53 C48.59 9.86, 52.78 7.93, 65 2.91 M41.19 10.53 C46.81 9.01, 51.39 6.42, 65 2.91" stroke="#1e1e1e" stroke-width="1" fill="none"></path></g><g transform="translate(2977.7803921019004 1052.9405160016959) rotate(0 32.32192836308354 0.9062222905537283)"><path d="M41.86 -6.56 C49.23 -2.87, 53.25 -0.45, 65 2.91 M41.86 -6.56 C47.37 -4.08, 51.79 -2.68, 65 2.91" stroke="#1e1e1e" stroke-width="1" fill="none"></path></g></g><mask></mask><g stroke-linecap="round"><g transform="translate(2968.1140210026606 1016.0874761858433) rotate(0 1.208296387404971 48.331855496199836)"><path d="M0.7 -0.97 C0.97 15.11, 2.41 81.26, 2.59 97.45 M-0.39 1.13 C-0.35 16.79, 1.55 79.72, 1.74 95.73" stroke="#1e1e1e" stroke-width="1" fill="none"></path></g></g><mask></mask><g transform="translate(3062.965287413953 1015.4833279921409) rotate(0 89.99192810058594 20)"><text x="0" y="14.016" font-family="Virgil, Segoe UI Emoji" font-size="16px" fill="#1e1e1e" text-anchor="start" style="white-space: pre;" direction="ltr" dominant-baseline="alphabetic">setuptools =&gt; setup.py</text><text x="0" y="34.016" font-family="Virgil, Segoe UI Emoji" font-size="16px" fill="#1e1e1e" text-anchor="start" style="white-space: pre;" direction="ltr" dominant-baseline="alphabetic"></text></g><g transform="translate(1908.479473999777 889.8205037020214) rotate(0 83.83057403564453 27.055363912831325)"><text x="0" y="12.640266020074796" font-family="Virgil, Segoe UI Emoji" font-size="14.42952742017671px" fill="#1e1e1e" text-anchor="start" style="white-space: pre;" direction="ltr" dominant-baseline="alphabetic">- os.path</text><text x="0" y="30.677175295295683" font-family="Virgil, Segoe UI Emoji" font-size="14.42952742017671px" fill="#1e1e1e" text-anchor="start" style="white-space: pre;" direction="ltr" dominant-baseline="alphabetic">- pathlib =&gt; class Path</text><text x="0" y="48.71408457051657" font-family="Virgil, Segoe UI Emoji" font-size="14.42952742017671px" fill="#1e1e1e" text-anchor="start" style="white-space: pre;" direction="ltr" dominant-baseline="alphabetic">- shutils</text></g><g transform="translate(2365.1264681984712 903.7159121571788) rotate(0 126.45592498779297 140)"><text x="0" y="14.016" font-family="Virgil, Segoe UI Emoji" font-size="16px" fill="#1e1e1e" text-anchor="start" style="white-space: pre;" direction="ltr" dominant-baseline="alphabetic">- scipy</text><text x="0" y="34.016" font-family="Virgil, Segoe UI Emoji" font-size="16px" fill="#1e1e1e" text-anchor="start" style="white-space: pre;" direction="ltr" dominant-baseline="alphabetic">    * numpy: </text><text x="0" y="54.016" font-family="Virgil, Segoe UI Emoji" font-size="16px" fill="#1e1e1e" text-anchor="start" style="white-space: pre;" direction="ltr" dominant-baseline="alphabetic">        class ndarray</text><text x="0" y="74.016" font-family="Virgil, Segoe UI Emoji" font-size="16px" fill="#1e1e1e" text-anchor="start" style="white-space: pre;" direction="ltr" dominant-baseline="alphabetic">        statistics</text><text x="0" y="94.016" font-family="Virgil, Segoe UI Emoji" font-size="16px" fill="#1e1e1e" text-anchor="start" style="white-space: pre;" direction="ltr" dominant-baseline="alphabetic">    * matplotlib: graphics</text><text x="0" y="114.016" font-family="Virgil, Segoe UI Emoji" font-size="16px" fill="#1e1e1e" text-anchor="start" style="white-space: pre;" direction="ltr" dominant-baseline="alphabetic">    * pandas: data + I/O</text><text x="0" y="134.016" font-family="Virgil, Segoe UI Emoji" font-size="16px" fill="#1e1e1e" text-anchor="start" style="white-space: pre;" direction="ltr" dominant-baseline="alphabetic">        DataFrame</text><text x="0" y="154.016" font-family="Virgil, Segoe UI Emoji" font-size="16px" fill="#1e1e1e" text-anchor="start" style="white-space: pre;" direction="ltr" dominant-baseline="alphabetic">- others numeric, data, vizu libs</text><text x="0" y="174.016" font-family="Virgil, Segoe UI Emoji" font-size="16px" fill="#1e1e1e" text-anchor="start" style="white-space: pre;" direction="ltr" dominant-baseline="alphabetic">- IA: ml</text><text x="0" y="194.016" font-family="Virgil, Segoe UI Emoji" font-size="16px" fill="#1e1e1e" text-anchor="start" style="white-space: pre;" direction="ltr" dominant-baseline="alphabetic">    * pytorch</text><text x="0" y="214.016" font-family="Virgil, Segoe UI Emoji" font-size="16px" fill="#1e1e1e" text-anchor="start" style="white-space: pre;" direction="ltr" dominant-baseline="alphabetic">    * tensorflow</text><text x="0" y="234.016" font-family="Virgil, Segoe UI Emoji" font-size="16px" fill="#1e1e1e" text-anchor="start" style="white-space: pre;" direction="ltr" dominant-baseline="alphabetic">    * scikit-learn </text><text x="0" y="254.016" font-family="Virgil, Segoe UI Emoji" font-size="16px" fill="#1e1e1e" text-anchor="start" style="white-space: pre;" direction="ltr" dominant-baseline="alphabetic">    * keras</text><text x="0" y="274.016" font-family="Virgil, Segoe UI Emoji" font-size="16px" fill="#1e1e1e" text-anchor="start" style="white-space: pre;" direction="ltr" dominant-baseline="alphabetic"></text></g><g transform="translate(2089.3711098463345 883.5939304808146) rotate(0 130.6239013671874 99.99999999999999)"><text x="0" y="14.016" font-family="Virgil, Segoe UI Emoji" font-size="16px" fill="#1e1e1e" text-anchor="start" style="white-space: pre;" direction="ltr" dominant-baseline="alphabetic">django</text><text x="0" y="34.016" font-family="Virgil, Segoe UI Emoji" font-size="16px" fill="#1e1e1e" text-anchor="start" style="white-space: pre;" direction="ltr" dominant-baseline="alphabetic">    djangorest extension</text><text x="0" y="54.016" font-family="Virgil, Segoe UI Emoji" font-size="16px" fill="#1e1e1e" text-anchor="start" style="white-space: pre;" direction="ltr" dominant-baseline="alphabetic"> flask: api or full web (template)</text><text x="0" y="74.016" font-family="Virgil, Segoe UI Emoji" font-size="16px" fill="#1e1e1e" text-anchor="start" style="white-space: pre;" direction="ltr" dominant-baseline="alphabetic">fastapi: </text><text x="0" y="94.016" font-family="Virgil, Segoe UI Emoji" font-size="16px" fill="#1e1e1e" text-anchor="start" style="white-space: pre;" direction="ltr" dominant-baseline="alphabetic">    - async </text><text x="0" y="114.016" font-family="Virgil, Segoe UI Emoji" font-size="16px" fill="#1e1e1e" text-anchor="start" style="white-space: pre;" direction="ltr" dominant-baseline="alphabetic">    - validation (hints)</text><text x="0" y="134.016" font-family="Virgil, Segoe UI Emoji" font-size="16px" fill="#1e1e1e" text-anchor="start" style="white-space: pre;" direction="ltr" dominant-baseline="alphabetic">scraping:</text><text x="0" y="154.016" font-family="Virgil, Segoe UI Emoji" font-size="16px" fill="#1e1e1e" text-anchor="start" style="white-space: pre;" direction="ltr" dominant-baseline="alphabetic">    - scrapy</text><text x="0" y="174.016" font-family="Virgil, Segoe UI Emoji" font-size="16px" fill="#1e1e1e" text-anchor="start" style="white-space: pre;" direction="ltr" dominant-baseline="alphabetic">    - beautifulsoup</text><text x="0" y="194.016" font-family="Virgil, Segoe UI Emoji" font-size="16px" fill="#1e1e1e" text-anchor="start" style="white-space: pre;" direction="ltr" dominant-baseline="alphabetic">    - lxml</text></g></svg>